  0
SECTION
  2
BLOCKS
  0
ENDSEC
  0
SECTION
  2
ENTITIES
  0
LINE
  8
0
 10
82.5
 20
24.2737
 11
82.2422
 21
25.144
  0
LINE
  8
0
 10
82.2422
 20
25.144
 11
81.7909
 21
26.5755
  0
LINE
  8
0
 10
81.7909
 20
26.5755
 11
81.3146
 21
27.9989
  0
LINE
  8
0
 10
81.3146
 20
27.9989
 11
80.8136
 21
29.4137
  0
LINE
  8
0
 10
80.8136
 20
29.4137
 11
80.2879
 21
30.8196
  0
LINE
  8
0
 10
80.2879
 20
30.8196
 11
79.7378
 21
32.2162
  0
LINE
  8
0
 10
79.7378
 20
32.2162
 11
79.1634
 21
33.6029
  0
LINE
  8
0
 10
79.1634
 20
33.6029
 11
78.5649
 21
34.9793
  0
LINE
  8
0
 10
78.5649
 20
34.9793
 11
77.9425
 21
36.3452
  0
LINE
  8
0
 10
77.9425
 20
36.3452
 11
77.2963
 21
37.6999
  0
LINE
  8
0
 10
77.2963
 20
37.6999
 11
76.6266
 21
39.0432
  0
LINE
  8
0
 10
76.6266
 20
39.0432
 11
75.9335
 21
40.3745
  0
LINE
  8
0
 10
75.9335
 20
40.3745
 11
75.2173
 21
41.6936
  0
LINE
  8
0
 10
75.2173
 20
41.6936
 11
74.4782
 21
43
  0
LINE
  8
0
 10
74.4782
 20
43
 11
73.7164
 21
44.2933
  0
LINE
  8
0
 10
73.7164
 20
44.2933
 11
72.9321
 21
45.573
  0
LINE
  8
0
 10
72.9321
 20
45.573
 11
72.1257
 21
46.839
  0
LINE
  8
0
 10
72.1257
 20
46.839
 11
71.2972
 21
48.0906
  0
LINE
  8
0
 10
71.2972
 20
48.0906
 11
70.4471
 21
49.3276
  0
LINE
  8
0
 10
70.4471
 20
49.3276
 11
69.5755
 21
50.5495
  0
LINE
  8
0
 10
69.5755
 20
50.5495
 11
68.6826
 21
51.7561
  0
LINE
  8
0
 10
68.6826
 20
51.7561
 11
67.7689
 21
52.9469
  0
LINE
  8
0
 10
67.7689
 20
52.9469
 11
66.8345
 21
54.1216
  0
LINE
  8
0
 10
66.8345
 20
54.1216
 11
65.8798
 21
55.2797
  0
LINE
  8
0
 10
65.8798
 20
55.2797
 11
64.905
 21
56.4211
  0
LINE
  8
0
 10
64.905
 20
56.4211
 11
63.9104
 21
57.5452
  0
LINE
  8
0
 10
63.9104
 20
57.5452
 11
62.8964
 21
58.6519
  0
LINE
  8
0
 10
62.8964
 20
58.6519
 11
61.8632
 21
59.7406
  0
LINE
  8
0
 10
61.8632
 20
59.7406
 11
60.8112
 21
60.8112
  0
LINE
  8
0
 10
60.8112
 20
60.8112
 11
59.7406
 21
61.8632
  0
LINE
  8
0
 10
59.7406
 20
61.8632
 11
58.6519
 21
62.8964
  0
LINE
  8
0
 10
58.6519
 20
62.8964
 11
57.5452
 21
63.9104
  0
LINE
  8
0
 10
57.5452
 20
63.9104
 11
56.4211
 21
64.905
  0
LINE
  8
0
 10
56.4211
 20
64.905
 11
55.2797
 21
65.8798
  0
LINE
  8
0
 10
55.2797
 20
65.8798
 11
54.1216
 21
66.8345
  0
LINE
  8
0
 10
54.1216
 20
66.8345
 11
52.9469
 21
67.7689
  0
LINE
  8
0
 10
52.9469
 20
67.7689
 11
51.7561
 21
68.6826
  0
LINE
  8
0
 10
51.7561
 20
68.6826
 11
50.5495
 21
69.5755
  0
LINE
  8
0
 10
50.5495
 20
69.5755
 11
49.3276
 21
70.4471
  0
LINE
  8
0
 10
49.3276
 20
70.4471
 11
48.0906
 21
71.2972
  0
LINE
  8
0
 10
48.0906
 20
71.2972
 11
46.839
 21
72.1257
  0
LINE
  8
0
 10
46.839
 20
72.1257
 11
45.573
 21
72.9321
  0
LINE
  8
0
 10
45.573
 20
72.9321
 11
44.2933
 21
73.7164
  0
LINE
  8
0
 10
44.2933
 20
73.7164
 11
43
 21
74.4782
  0
LINE
  8
0
 10
43
 20
74.4782
 11
41.6936
 21
75.2173
  0
LINE
  8
0
 10
41.6936
 20
75.2173
 11
40.3745
 21
75.9335
  0
LINE
  8
0
 10
40.3745
 20
75.9335
 11
39.0432
 21
76.6266
  0
LINE
  8
0
 10
39.0432
 20
76.6266
 11
37.6999
 21
77.2963
  0
LINE
  8
0
 10
37.6999
 20
77.2963
 11
36.3452
 21
77.9425
  0
LINE
  8
0
 10
36.3452
 20
77.9425
 11
34.9793
 21
78.5649
  0
LINE
  8
0
 10
34.9793
 20
78.5649
 11
33.6029
 21
79.1634
  0
LINE
  8
0
 10
33.6029
 20
79.1634
 11
32.2162
 21
79.7378
  0
LINE
  8
0
 10
32.2162
 20
79.7378
 11
30.8196
 21
80.2879
  0
LINE
  8
0
 10
30.8196
 20
80.2879
 11
29.4137
 21
80.8136
  0
LINE
  8
0
 10
29.4137
 20
80.8136
 11
27.9989
 21
81.3146
  0
LINE
  8
0
 10
27.9989
 20
81.3146
 11
26.5755
 21
81.7909
  0
LINE
  8
0
 10
26.5755
 20
81.7909
 11
25.144
 21
82.2422
  0
LINE
  8
0
 10
25.144
 20
82.2422
 11
23.7048
 21
82.6685
  0
LINE
  8
0
 10
23.7048
 20
82.6685
 11
22.2584
 21
83.0696
  0
LINE
  8
0
 10
22.2584
 20
83.0696
 11
20.8053
 21
83.4454
  0
LINE
  8
0
 10
20.8053
 20
83.4454
 11
19.3458
 21
83.7958
  0
LINE
  8
0
 10
19.3458
 20
83.7958
 11
17.8804
 21
84.1207
  0
LINE
  8
0
 10
17.8804
 20
84.1207
 11
16.4096
 21
84.4199
  0
LINE
  8
0
 10
16.4096
 20
84.4199
 11
14.9337
 21
84.6935
  0
LINE
  8
0
 10
14.9337
 20
84.6935
 11
13.4534
 21
84.9412
  0
LINE
  8
0
 10
13.4534
 20
84.9412
 11
11.9689
 21
85.1631
  0
LINE
  8
0
 10
11.9689
 20
85.1631
 11
10.4808
 21
85.359
  0
LINE
  8
0
 10
10.4808
 20
85.359
 11
8.98944
 21
85.5289
  0
LINE
  8
0
 10
8.98944
 20
85.5289
 11
7.49539
 21
85.6727
  0
LINE
  8
0
 10
7.49539
 20
85.6727
 11
5.99905
 21
85.7905
  0
LINE
  8
0
 10
5.99905
 20
85.7905
 11
4.50089
 21
85.8821
  0
LINE
  8
0
 10
4.50089
 20
85.8821
 11
3.00134
 21
85.9476
  0
LINE
  8
0
 10
3.00134
 20
85.9476
 11
2.5
 21
85.9607
  0
LINE
  8
0
 10
2.5
 20
85.9607
 11
2.5
 21
87.9613
  0
LINE
  8
0
 10
2.5
 20
87.9613
 11
1.5358
 21
87.9866
  0
LINE
  8
0
 10
1.5358
 20
87.9866
 11
0
 21
88
  0
LINE
  8
0
 10
0
 20
88
 11
-1.5358
 21
87.9866
  0
LINE
  8
0
 10
-1.5358
 20
87.9866
 11
-2.5
 21
87.9613
  0
LINE
  8
0
 10
-2.5
 20
87.9613
 11
-2.5
 21
85.9607
  0
LINE
  8
0
 10
-2.5
 20
85.9607
 11
-3.00134
 21
85.9476
  0
LINE
  8
0
 10
-3.00134
 20
85.9476
 11
-4.50089
 21
85.8821
  0
LINE
  8
0
 10
-4.50089
 20
85.8821
 11
-5.99905
 21
85.7905
  0
LINE
  8
0
 10
-5.99905
 20
85.7905
 11
-7.49539
 21
85.6727
  0
LINE
  8
0
 10
-7.49539
 20
85.6727
 11
-8.98944
 21
85.5289
  0
LINE
  8
0
 10
-8.98944
 20
85.5289
 11
-10.4808
 21
85.359
  0
LINE
  8
0
 10
-10.4808
 20
85.359
 11
-11.9689
 21
85.1631
  0
LINE
  8
0
 10
-11.9689
 20
85.1631
 11
-13.4534
 21
84.9412
  0
LINE
  8
0
 10
-13.4534
 20
84.9412
 11
-14.9337
 21
84.6935
  0
LINE
  8
0
 10
-14.9337
 20
84.6935
 11
-16.4096
 21
84.4199
  0
LINE
  8
0
 10
-16.4096
 20
84.4199
 11
-17.8804
 21
84.1207
  0
LINE
  8
0
 10
-17.8804
 20
84.1207
 11
-19.3458
 21
83.7958
  0
LINE
  8
0
 10
-19.3458
 20
83.7958
 11
-20.8053
 21
83.4454
  0
LINE
  8
0
 10
-20.8053
 20
83.4454
 11
-22.2584
 21
83.0696
  0
LINE
  8
0
 10
-22.2584
 20
83.0696
 11
-23.7048
 21
82.6685
  0
LINE
  8
0
 10
-23.7048
 20
82.6685
 11
-25.144
 21
82.2422
  0
LINE
  8
0
 10
-25.144
 20
82.2422
 11
-26.5755
 21
81.7909
  0
LINE
  8
0
 10
-26.5755
 20
81.7909
 11
-27.9989
 21
81.3146
  0
LINE
  8
0
 10
-27.9989
 20
81.3146
 11
-29.4137
 21
80.8136
  0
LINE
  8
0
 10
-29.4137
 20
80.8136
 11
-30.8196
 21
80.2879
  0
LINE
  8
0
 10
-30.8196
 20
80.2879
 11
-32.2162
 21
79.7378
  0
LINE
  8
0
 10
-32.2162
 20
79.7378
 11
-33.6029
 21
79.1634
  0
LINE
  8
0
 10
-33.6029
 20
79.1634
 11
-34.9793
 21
78.5649
  0
LINE
  8
0
 10
-34.9793
 20
78.5649
 11
-36.3452
 21
77.9425
  0
LINE
  8
0
 10
-36.3452
 20
77.9425
 11
-37.6999
 21
77.2963
  0
LINE
  8
0
 10
-37.6999
 20
77.2963
 11
-39.0432
 21
76.6266
  0
LINE
  8
0
 10
-39.0432
 20
76.6266
 11
-40.3745
 21
75.9335
  0
LINE
  8
0
 10
-40.3745
 20
75.9335
 11
-41.6936
 21
75.2173
  0
LINE
  8
0
 10
-41.6936
 20
75.2173
 11
-43
 21
74.4782
  0
LINE
  8
0
 10
-43
 20
74.4782
 11
-44.2933
 21
73.7164
  0
LINE
  8
0
 10
-44.2933
 20
73.7164
 11
-45.573
 21
72.9321
  0
LINE
  8
0
 10
-45.573
 20
72.9321
 11
-46.839
 21
72.1257
  0
LINE
  8
0
 10
-46.839
 20
72.1257
 11
-48.0906
 21
71.2972
  0
LINE
  8
0
 10
-48.0906
 20
71.2972
 11
-49.3276
 21
70.4471
  0
LINE
  8
0
 10
-49.3276
 20
70.4471
 11
-50.5495
 21
69.5755
  0
LINE
  8
0
 10
-50.5495
 20
69.5755
 11
-51.7561
 21
68.6826
  0
LINE
  8
0
 10
-51.7561
 20
68.6826
 11
-52.9469
 21
67.7689
  0
LINE
  8
0
 10
-52.9469
 20
67.7689
 11
-54.1216
 21
66.8345
  0
LINE
  8
0
 10
-54.1216
 20
66.8345
 11
-55.2797
 21
65.8798
  0
LINE
  8
0
 10
-55.2797
 20
65.8798
 11
-56.4211
 21
64.905
  0
LINE
  8
0
 10
-56.4211
 20
64.905
 11
-57.5452
 21
63.9104
  0
LINE
  8
0
 10
-57.5452
 20
63.9104
 11
-58.6519
 21
62.8964
  0
LINE
  8
0
 10
-58.6519
 20
62.8964
 11
-59.7406
 21
61.8632
  0
LINE
  8
0
 10
-59.7406
 20
61.8632
 11
-60.8112
 21
60.8112
  0
LINE
  8
0
 10
-60.8112
 20
60.8112
 11
-61.8632
 21
59.7406
  0
LINE
  8
0
 10
-61.8632
 20
59.7406
 11
-62.8964
 21
58.6519
  0
LINE
  8
0
 10
-62.8964
 20
58.6519
 11
-63.9104
 21
57.5452
  0
LINE
  8
0
 10
-63.9104
 20
57.5452
 11
-64.905
 21
56.4211
  0
LINE
  8
0
 10
-64.905
 20
56.4211
 11
-65.8798
 21
55.2797
  0
LINE
  8
0
 10
-65.8798
 20
55.2797
 11
-66.8345
 21
54.1216
  0
LINE
  8
0
 10
-66.8345
 20
54.1216
 11
-67.7689
 21
52.9469
  0
LINE
  8
0
 10
-67.7689
 20
52.9469
 11
-68.6826
 21
51.7561
  0
LINE
  8
0
 10
-68.6826
 20
51.7561
 11
-69.5755
 21
50.5495
  0
LINE
  8
0
 10
-69.5755
 20
50.5495
 11
-70.4471
 21
49.3276
  0
LINE
  8
0
 10
-70.4471
 20
49.3276
 11
-71.2972
 21
48.0906
  0
LINE
  8
0
 10
-71.2972
 20
48.0906
 11
-72.1257
 21
46.839
  0
LINE
  8
0
 10
-72.1257
 20
46.839
 11
-72.9321
 21
45.573
  0
LINE
  8
0
 10
-72.9321
 20
45.573
 11
-73.7164
 21
44.2933
  0
LINE
  8
0
 10
-73.7164
 20
44.2933
 11
-74.4782
 21
43
  0
LINE
  8
0
 10
-74.4782
 20
43
 11
-75.2173
 21
41.6936
  0
LINE
  8
0
 10
-75.2173
 20
41.6936
 11
-75.9335
 21
40.3745
  0
LINE
  8
0
 10
-75.9335
 20
40.3745
 11
-76.6266
 21
39.0432
  0
LINE
  8
0
 10
-76.6266
 20
39.0432
 11
-77.2963
 21
37.6999
  0
LINE
  8
0
 10
-77.2963
 20
37.6999
 11
-77.9425
 21
36.3452
  0
LINE
  8
0
 10
-77.9425
 20
36.3452
 11
-78.5649
 21
34.9793
  0
LINE
  8
0
 10
-78.5649
 20
34.9793
 11
-79.1634
 21
33.6029
  0
LINE
  8
0
 10
-79.1634
 20
33.6029
 11
-79.7378
 21
32.2162
  0
LINE
  8
0
 10
-79.7378
 20
32.2162
 11
-80.2879
 21
30.8196
  0
LINE
  8
0
 10
-80.2879
 20
30.8196
 11
-80.8136
 21
29.4137
  0
LINE
  8
0
 10
-80.8136
 20
29.4137
 11
-81.3146
 21
27.9989
  0
LINE
  8
0
 10
-81.3146
 20
27.9989
 11
-81.7909
 21
26.5755
  0
LINE
  8
0
 10
-81.7909
 20
26.5755
 11
-82.2422
 21
25.144
  0
LINE
  8
0
 10
-82.2422
 20
25.144
 11
-82.6685
 21
23.7048
  0
LINE
  8
0
 10
-82.6685
 20
23.7048
 11
-83.0696
 21
22.2584
  0
LINE
  8
0
 10
-83.0696
 20
22.2584
 11
-83.4454
 21
20.8053
  0
LINE
  8
0
 10
-83.4454
 20
20.8053
 11
-83.7958
 21
19.3458
  0
LINE
  8
0
 10
-83.7958
 20
19.3458
 11
-84.1207
 21
17.8804
  0
LINE
  8
0
 10
-84.1207
 20
17.8804
 11
-84.4199
 21
16.4096
  0
LINE
  8
0
 10
-84.4199
 20
16.4096
 11
-84.6935
 21
14.9337
  0
LINE
  8
0
 10
-84.6935
 20
14.9337
 11
-84.9412
 21
13.4534
  0
LINE
  8
0
 10
-84.9412
 20
13.4534
 11
-85.1631
 21
11.9689
  0
LINE
  8
0
 10
-85.1631
 20
11.9689
 11
-85.359
 21
10.4808
  0
LINE
  8
0
 10
-85.359
 20
10.4808
 11
-85.5289
 21
8.98944
  0
LINE
  8
0
 10
-85.5289
 20
8.98944
 11
-85.6727
 21
7.49539
  0
LINE
  8
0
 10
-85.6727
 20
7.49539
 11
-85.7905
 21
5.99905
  0
LINE
  8
0
 10
-85.7905
 20
5.99905
 11
-85.8821
 21
4.50089
  0
LINE
  8
0
 10
-85.8821
 20
4.50089
 11
-85.9476
 21
3.00134
  0
LINE
  8
0
 10
-85.9476
 20
3.00134
 11
-85.9607
 21
2.5
  0
LINE
  8
0
 10
-85.9607
 20
2.5
 11
-87.9613
 21
2.5
  0
LINE
  8
0
 10
-87.9613
 20
2.5
 11
-87.9866
 21
1.5358
  0
LINE
  8
0
 10
-87.9866
 20
1.5358
 11
-88
 21
0
  0
LINE
  8
0
 10
-88
 20
0
 11
-87.9866
 21
-1.5358
  0
LINE
  8
0
 10
-87.9866
 20
-1.5358
 11
-87.9613
 21
-2.5
  0
LINE
  8
0
 10
-87.9613
 20
-2.5
 11
-85.9607
 21
-2.5
  0
LINE
  8
0
 10
-85.9607
 20
-2.5
 11
-85.9476
 21
-3.00134
  0
LINE
  8
0
 10
-85.9476
 20
-3.00134
 11
-85.8821
 21
-4.50089
  0
LINE
  8
0
 10
-85.8821
 20
-4.50089
 11
-85.7905
 21
-5.99905
  0
LINE
  8
0
 10
-85.7905
 20
-5.99905
 11
-85.6727
 21
-7.49539
  0
LINE
  8
0
 10
-85.6727
 20
-7.49539
 11
-85.5289
 21
-8.98944
  0
LINE
  8
0
 10
-85.5289
 20
-8.98944
 11
-85.359
 21
-10.4808
  0
LINE
  8
0
 10
-85.359
 20
-10.4808
 11
-85.1631
 21
-11.9689
  0
LINE
  8
0
 10
-85.1631
 20
-11.9689
 11
-84.9412
 21
-13.4534
  0
LINE
  8
0
 10
-84.9412
 20
-13.4534
 11
-84.6935
 21
-14.9337
  0
LINE
  8
0
 10
-84.6935
 20
-14.9337
 11
-84.4199
 21
-16.4096
  0
LINE
  8
0
 10
-84.4199
 20
-16.4096
 11
-84.1207
 21
-17.8804
  0
LINE
  8
0
 10
-84.1207
 20
-17.8804
 11
-83.7958
 21
-19.3458
  0
LINE
  8
0
 10
-83.7958
 20
-19.3458
 11
-83.4454
 21
-20.8053
  0
LINE
  8
0
 10
-83.4454
 20
-20.8053
 11
-83.0696
 21
-22.2584
  0
LINE
  8
0
 10
-83.0696
 20
-22.2584
 11
-82.6685
 21
-23.7048
  0
LINE
  8
0
 10
-82.6685
 20
-23.7048
 11
-82.2422
 21
-25.144
  0
LINE
  8
0
 10
-82.2422
 20
-25.144
 11
-81.7909
 21
-26.5755
  0
LINE
  8
0
 10
-81.7909
 20
-26.5755
 11
-81.3146
 21
-27.9989
  0
LINE
  8
0
 10
-81.3146
 20
-27.9989
 11
-80.8136
 21
-29.4137
  0
LINE
  8
0
 10
-80.8136
 20
-29.4137
 11
-80.2879
 21
-30.8196
  0
LINE
  8
0
 10
-80.2879
 20
-30.8196
 11
-79.7378
 21
-32.2162
  0
LINE
  8
0
 10
-79.7378
 20
-32.2162
 11
-79.1634
 21
-33.6029
  0
LINE
  8
0
 10
-79.1634
 20
-33.6029
 11
-78.5649
 21
-34.9793
  0
LINE
  8
0
 10
-78.5649
 20
-34.9793
 11
-77.9425
 21
-36.3452
  0
LINE
  8
0
 10
-77.9425
 20
-36.3452
 11
-77.2963
 21
-37.6999
  0
LINE
  8
0
 10
-77.2963
 20
-37.6999
 11
-76.6266
 21
-39.0432
  0
LINE
  8
0
 10
-76.6266
 20
-39.0432
 11
-75.9335
 21
-40.3745
  0
LINE
  8
0
 10
-75.9335
 20
-40.3745
 11
-75.2173
 21
-41.6936
  0
LINE
  8
0
 10
-75.2173
 20
-41.6936
 11
-74.4782
 21
-43
  0
LINE
  8
0
 10
-74.4782
 20
-43
 11
-73.7164
 21
-44.2933
  0
LINE
  8
0
 10
-73.7164
 20
-44.2933
 11
-72.9321
 21
-45.573
  0
LINE
  8
0
 10
-72.9321
 20
-45.573
 11
-72.1257
 21
-46.839
  0
LINE
  8
0
 10
-72.1257
 20
-46.839
 11
-71.2972
 21
-48.0906
  0
LINE
  8
0
 10
-71.2972
 20
-48.0906
 11
-70.4471
 21
-49.3276
  0
LINE
  8
0
 10
-70.4471
 20
-49.3276
 11
-69.5755
 21
-50.5495
  0
LINE
  8
0
 10
-69.5755
 20
-50.5495
 11
-68.6826
 21
-51.7561
  0
LINE
  8
0
 10
-68.6826
 20
-51.7561
 11
-67.7689
 21
-52.9469
  0
LINE
  8
0
 10
-67.7689
 20
-52.9469
 11
-66.8345
 21
-54.1216
  0
LINE
  8
0
 10
-66.8345
 20
-54.1216
 11
-65.8798
 21
-55.2797
  0
LINE
  8
0
 10
-65.8798
 20
-55.2797
 11
-64.905
 21
-56.4211
  0
LINE
  8
0
 10
-64.905
 20
-56.4211
 11
-63.9104
 21
-57.5452
  0
LINE
  8
0
 10
-63.9104
 20
-57.5452
 11
-62.8964
 21
-58.6519
  0
LINE
  8
0
 10
-62.8964
 20
-58.6519
 11
-61.8632
 21
-59.7406
  0
LINE
  8
0
 10
-61.8632
 20
-59.7406
 11
-60.8112
 21
-60.8112
  0
LINE
  8
0
 10
-60.8112
 20
-60.8112
 11
-59.7406
 21
-61.8632
  0
LINE
  8
0
 10
-59.7406
 20
-61.8632
 11
-58.6519
 21
-62.8964
  0
LINE
  8
0
 10
-58.6519
 20
-62.8964
 11
-57.5452
 21
-63.9104
  0
LINE
  8
0
 10
-57.5452
 20
-63.9104
 11
-56.4211
 21
-64.905
  0
LINE
  8
0
 10
-56.4211
 20
-64.905
 11
-55.2797
 21
-65.8798
  0
LINE
  8
0
 10
-55.2797
 20
-65.8798
 11
-54.1216
 21
-66.8345
  0
LINE
  8
0
 10
-54.1216
 20
-66.8345
 11
-52.9469
 21
-67.7689
  0
LINE
  8
0
 10
-52.9469
 20
-67.7689
 11
-51.7561
 21
-68.6826
  0
LINE
  8
0
 10
-51.7561
 20
-68.6826
 11
-50.5495
 21
-69.5755
  0
LINE
  8
0
 10
-50.5495
 20
-69.5755
 11
-49.3276
 21
-70.4471
  0
LINE
  8
0
 10
-49.3276
 20
-70.4471
 11
-48.0906
 21
-71.2972
  0
LINE
  8
0
 10
-48.0906
 20
-71.2972
 11
-46.839
 21
-72.1257
  0
LINE
  8
0
 10
-46.839
 20
-72.1257
 11
-45.573
 21
-72.9321
  0
LINE
  8
0
 10
-45.573
 20
-72.9321
 11
-44.2933
 21
-73.7164
  0
LINE
  8
0
 10
-44.2933
 20
-73.7164
 11
-43
 21
-74.4782
  0
LINE
  8
0
 10
-43
 20
-74.4782
 11
-41.6936
 21
-75.2173
  0
LINE
  8
0
 10
-41.6936
 20
-75.2173
 11
-40.3745
 21
-75.9335
  0
LINE
  8
0
 10
-40.3745
 20
-75.9335
 11
-39.0432
 21
-76.6266
  0
LINE
  8
0
 10
-39.0432
 20
-76.6266
 11
-37.6999
 21
-77.2963
  0
LINE
  8
0
 10
-37.6999
 20
-77.2963
 11
-36.3452
 21
-77.9425
  0
LINE
  8
0
 10
-36.3452
 20
-77.9425
 11
-34.9793
 21
-78.5649
  0
LINE
  8
0
 10
-34.9793
 20
-78.5649
 11
-33.6029
 21
-79.1634
  0
LINE
  8
0
 10
-33.6029
 20
-79.1634
 11
-32.2162
 21
-79.7378
  0
LINE
  8
0
 10
-32.2162
 20
-79.7378
 11
-30.8196
 21
-80.2879
  0
LINE
  8
0
 10
-30.8196
 20
-80.2879
 11
-29.4137
 21
-80.8136
  0
LINE
  8
0
 10
-29.4137
 20
-80.8136
 11
-27.9989
 21
-81.3146
  0
LINE
  8
0
 10
-27.9989
 20
-81.3146
 11
-26.5755
 21
-81.7909
  0
LINE
  8
0
 10
-26.5755
 20
-81.7909
 11
-25.144
 21
-82.2422
  0
LINE
  8
0
 10
-25.144
 20
-82.2422
 11
-23.7048
 21
-82.6685
  0
LINE
  8
0
 10
-23.7048
 20
-82.6685
 11
-22.2584
 21
-83.0696
  0
LINE
  8
0
 10
-22.2584
 20
-83.0696
 11
-20.8053
 21
-83.4454
  0
LINE
  8
0
 10
-20.8053
 20
-83.4454
 11
-19.3458
 21
-83.7958
  0
LINE
  8
0
 10
-19.3458
 20
-83.7958
 11
-17.8804
 21
-84.1207
  0
LINE
  8
0
 10
-17.8804
 20
-84.1207
 11
-16.4096
 21
-84.4199
  0
LINE
  8
0
 10
-16.4096
 20
-84.4199
 11
-14.9337
 21
-84.6935
  0
LINE
  8
0
 10
-14.9337
 20
-84.6935
 11
-13.4534
 21
-84.9412
  0
LINE
  8
0
 10
-13.4534
 20
-84.9412
 11
-11.9689
 21
-85.1631
  0
LINE
  8
0
 10
-11.9689
 20
-85.1631
 11
-10.4808
 21
-85.359
  0
LINE
  8
0
 10
-10.4808
 20
-85.359
 11
-8.98944
 21
-85.5289
  0
LINE
  8
0
 10
-8.98944
 20
-85.5289
 11
-7.49539
 21
-85.6727
  0
LINE
  8
0
 10
-7.49539
 20
-85.6727
 11
-5.99905
 21
-85.7905
  0
LINE
  8
0
 10
-5.99905
 20
-85.7905
 11
-4.50089
 21
-85.8821
  0
LINE
  8
0
 10
-4.50089
 20
-85.8821
 11
-3.00134
 21
-85.9476
  0
LINE
  8
0
 10
-3.00134
 20
-85.9476
 11
-2.5
 21
-85.9607
  0
LINE
  8
0
 10
-2.5
 20
-85.9607
 11
-2.5
 21
-87.9613
  0
LINE
  8
0
 10
-2.5
 20
-87.9613
 11
-1.5358
 21
-87.9866
  0
LINE
  8
0
 10
-1.5358
 20
-87.9866
 11
0
 21
-88
  0
LINE
  8
0
 10
0
 20
-88
 11
1.5358
 21
-87.9866
  0
LINE
  8
0
 10
1.5358
 20
-87.9866
 11
2.5
 21
-87.9613
  0
LINE
  8
0
 10
2.5
 20
-87.9613
 11
2.5
 21
-85.9607
  0
LINE
  8
0
 10
2.5
 20
-85.9607
 11
3.00134
 21
-85.9476
  0
LINE
  8
0
 10
3.00134
 20
-85.9476
 11
4.50089
 21
-85.8821
  0
LINE
  8
0
 10
4.50089
 20
-85.8821
 11
5.99905
 21
-85.7905
  0
LINE
  8
0
 10
5.99905
 20
-85.7905
 11
7.49539
 21
-85.6727
  0
LINE
  8
0
 10
7.49539
 20
-85.6727
 11
8.98944
 21
-85.5289
  0
LINE
  8
0
 10
8.98944
 20
-85.5289
 11
10.4808
 21
-85.359
  0
LINE
  8
0
 10
10.4808
 20
-85.359
 11
11.9689
 21
-85.1631
  0
LINE
  8
0
 10
11.9689
 20
-85.1631
 11
13.4534
 21
-84.9412
  0
LINE
  8
0
 10
13.4534
 20
-84.9412
 11
14.9337
 21
-84.6935
  0
LINE
  8
0
 10
14.9337
 20
-84.6935
 11
16.4096
 21
-84.4199
  0
LINE
  8
0
 10
16.4096
 20
-84.4199
 11
17.8804
 21
-84.1207
  0
LINE
  8
0
 10
17.8804
 20
-84.1207
 11
19.3458
 21
-83.7958
  0
LINE
  8
0
 10
19.3458
 20
-83.7958
 11
20.8053
 21
-83.4454
  0
LINE
  8
0
 10
20.8053
 20
-83.4454
 11
22.2584
 21
-83.0696
  0
LINE
  8
0
 10
22.2584
 20
-83.0696
 11
23.7048
 21
-82.6685
  0
LINE
  8
0
 10
23.7048
 20
-82.6685
 11
25.144
 21
-82.2422
  0
LINE
  8
0
 10
25.144
 20
-82.2422
 11
26.5755
 21
-81.7909
  0
LINE
  8
0
 10
26.5755
 20
-81.7909
 11
27.9989
 21
-81.3146
  0
LINE
  8
0
 10
27.9989
 20
-81.3146
 11
29.4137
 21
-80.8136
  0
LINE
  8
0
 10
29.4137
 20
-80.8136
 11
30.8196
 21
-80.2879
  0
LINE
  8
0
 10
30.8196
 20
-80.2879
 11
32.2162
 21
-79.7378
  0
LINE
  8
0
 10
32.2162
 20
-79.7378
 11
33.6029
 21
-79.1634
  0
LINE
  8
0
 10
33.6029
 20
-79.1634
 11
34.9793
 21
-78.5649
  0
LINE
  8
0
 10
34.9793
 20
-78.5649
 11
36.3452
 21
-77.9425
  0
LINE
  8
0
 10
36.3452
 20
-77.9425
 11
37.6999
 21
-77.2963
  0
LINE
  8
0
 10
37.6999
 20
-77.2963
 11
39.0432
 21
-76.6266
  0
LINE
  8
0
 10
39.0432
 20
-76.6266
 11
40.3745
 21
-75.9335
  0
LINE
  8
0
 10
40.3745
 20
-75.9335
 11
41.6936
 21
-75.2173
  0
LINE
  8
0
 10
41.6936
 20
-75.2173
 11
43
 21
-74.4782
  0
LINE
  8
0
 10
43
 20
-74.4782
 11
44.2933
 21
-73.7164
  0
LINE
  8
0
 10
44.2933
 20
-73.7164
 11
45.573
 21
-72.9321
  0
LINE
  8
0
 10
45.573
 20
-72.9321
 11
46.839
 21
-72.1257
  0
LINE
  8
0
 10
46.839
 20
-72.1257
 11
48.0906
 21
-71.2972
  0
LINE
  8
0
 10
48.0906
 20
-71.2972
 11
49.3276
 21
-70.4471
  0
LINE
  8
0
 10
49.3276
 20
-70.4471
 11
50.5495
 21
-69.5755
  0
LINE
  8
0
 10
50.5495
 20
-69.5755
 11
51.7561
 21
-68.6826
  0
LINE
  8
0
 10
51.7561
 20
-68.6826
 11
52.9469
 21
-67.7689
  0
LINE
  8
0
 10
52.9469
 20
-67.7689
 11
54.1216
 21
-66.8345
  0
LINE
  8
0
 10
54.1216
 20
-66.8345
 11
55.2797
 21
-65.8798
  0
LINE
  8
0
 10
55.2797
 20
-65.8798
 11
56.4211
 21
-64.905
  0
LINE
  8
0
 10
56.4211
 20
-64.905
 11
57.5452
 21
-63.9104
  0
LINE
  8
0
 10
57.5452
 20
-63.9104
 11
58.6519
 21
-62.8964
  0
LINE
  8
0
 10
58.6519
 20
-62.8964
 11
59.7406
 21
-61.8632
  0
LINE
  8
0
 10
59.7406
 20
-61.8632
 11
60.8112
 21
-60.8112
  0
LINE
  8
0
 10
60.8112
 20
-60.8112
 11
61.8632
 21
-59.7406
  0
LINE
  8
0
 10
61.8632
 20
-59.7406
 11
62.8964
 21
-58.6519
  0
LINE
  8
0
 10
62.8964
 20
-58.6519
 11
63.9104
 21
-57.5452
  0
LINE
  8
0
 10
63.9104
 20
-57.5452
 11
64.905
 21
-56.4211
  0
LINE
  8
0
 10
64.905
 20
-56.4211
 11
65.8798
 21
-55.2797
  0
LINE
  8
0
 10
65.8798
 20
-55.2797
 11
66.8345
 21
-54.1216
  0
LINE
  8
0
 10
66.8345
 20
-54.1216
 11
67.7689
 21
-52.9469
  0
LINE
  8
0
 10
67.7689
 20
-52.9469
 11
68.6826
 21
-51.7561
  0
LINE
  8
0
 10
68.6826
 20
-51.7561
 11
69.5755
 21
-50.5495
  0
LINE
  8
0
 10
69.5755
 20
-50.5495
 11
70.4471
 21
-49.3276
  0
LINE
  8
0
 10
70.4471
 20
-49.3276
 11
71.2972
 21
-48.0906
  0
LINE
  8
0
 10
71.2972
 20
-48.0906
 11
72.1257
 21
-46.839
  0
LINE
  8
0
 10
72.1257
 20
-46.839
 11
72.9321
 21
-45.573
  0
LINE
  8
0
 10
72.9321
 20
-45.573
 11
73.7164
 21
-44.2933
  0
LINE
  8
0
 10
73.7164
 20
-44.2933
 11
74.4782
 21
-43
  0
LINE
  8
0
 10
74.4782
 20
-43
 11
75.2173
 21
-41.6936
  0
LINE
  8
0
 10
75.2173
 20
-41.6936
 11
75.9335
 21
-40.3745
  0
LINE
  8
0
 10
75.9335
 20
-40.3745
 11
76.6266
 21
-39.0432
  0
LINE
  8
0
 10
76.6266
 20
-39.0432
 11
77.2963
 21
-37.6999
  0
LINE
  8
0
 10
77.2963
 20
-37.6999
 11
77.9425
 21
-36.3452
  0
LINE
  8
0
 10
77.9425
 20
-36.3452
 11
78.5649
 21
-34.9793
  0
LINE
  8
0
 10
78.5649
 20
-34.9793
 11
79.1634
 21
-33.6029
  0
LINE
  8
0
 10
79.1634
 20
-33.6029
 11
79.7378
 21
-32.2162
  0
LINE
  8
0
 10
79.7378
 20
-32.2162
 11
80.2879
 21
-30.8196
  0
LINE
  8
0
 10
80.2879
 20
-30.8196
 11
80.8136
 21
-29.4137
  0
LINE
  8
0
 10
80.8136
 20
-29.4137
 11
81.3146
 21
-27.9989
  0
LINE
  8
0
 10
81.3146
 20
-27.9989
 11
81.7909
 21
-26.5755
  0
LINE
  8
0
 10
81.7909
 20
-26.5755
 11
82.2422
 21
-25.144
  0
LINE
  8
0
 10
82.2422
 20
-25.144
 11
82.5
 21
-24.2737
  0
LINE
  8
0
 10
82.5
 20
-24.2737
 11
82.5
 21
-28
  0
LINE
  8
0
 10
82.5
 20
-28
 11
96
 21
-28
  0
LINE
  8
0
 10
96
 20
-28
 11
96
 21
-30
  0
LINE
  8
0
 10
96
 20
-30
 11
101
 21
-30
  0
LINE
  8
0
 10
101
 20
-30
 11
101
 21
-28
  0
LINE
  8
0
 10
101
 20
-28
 11
114.5
 21
-28
  0
LINE
  8
0
 10
114.5
 20
-28
 11
114.5
 21
-2.5
  0
LINE
  8
0
 10
114.5
 20
-2.5
 11
118.5
 21
-2.5
  0
LINE
  8
0
 10
118.5
 20
-2.5
 11
118.5
 21
2.5
  0
LINE
  8
0
 10
118.5
 20
2.5
 11
114.5
 21
2.5
  0
LINE
  8
0
 10
114.5
 20
2.5
 11
114.5
 21
28
  0
LINE
  8
0
 10
114.5
 20
28
 11
101
 21
28
  0
LINE
  8
0
 10
101
 20
28
 11
101
 21
30
  0
LINE
  8
0
 10
101
 20
30
 11
96
 21
30
  0
LINE
  8
0
 10
96
 20
30
 11
96
 21
28
  0
LINE
  8
0
 10
96
 20
28
 11
82.5
 21
28
  0
LINE
  8
0
 10
82.5
 20
28
 11
82.5
 21
24.2737
  0
LINE
  8
0
 10
2.5
 20
-68.9539
 11
2.40805
 21
-68.958
  0
LINE
  8
0
 10
2.40805
 20
-68.958
 11
1.20421
 21
-68.9895
  0
LINE
  8
0
 10
1.20421
 20
-68.9895
 11
0
 21
-69
  0
LINE
  8
0
 10
0
 20
-69
 11
-1.20421
 21
-68.9895
  0
LINE
  8
0
 10
-1.20421
 20
-68.9895
 11
-2.40805
 21
-68.958
  0
LINE
  8
0
 10
-2.40805
 20
-68.958
 11
-2.5
 21
-68.9539
  0
LINE
  8
0
 10
-2.5
 20
-68.9539
 11
-2.5
 21
-70.9558
  0
LINE
  8
0
 10
-2.5
 20
-70.9558
 11
-3.71585
 21
-70.9027
  0
LINE
  8
0
 10
-3.71585
 20
-70.9027
 11
-4.9527
 21
-70.827
  0
LINE
  8
0
 10
-4.9527
 20
-70.827
 11
-6.18805
 21
-70.7298
  0
LINE
  8
0
 10
-6.18805
 20
-70.7298
 11
-7.42151
 21
-70.6111
  0
LINE
  8
0
 10
-7.42151
 20
-70.6111
 11
-8.65271
 21
-70.4708
  0
LINE
  8
0
 10
-8.65271
 20
-70.4708
 11
-9.88129
 21
-70.309
  0
LINE
  8
0
 10
-9.88129
 20
-70.309
 11
-11.1068
 21
-70.1259
  0
LINE
  8
0
 10
-11.1068
 20
-70.1259
 11
-12.329
 21
-69.9213
  0
LINE
  8
0
 10
-12.329
 20
-69.9213
 11
-13.5474
 21
-69.6955
  0
LINE
  8
0
 10
-13.5474
 20
-69.6955
 11
-14.7617
 21
-69.4485
  0
LINE
  8
0
 10
-14.7617
 20
-69.4485
 11
-15.9715
 21
-69.1803
  0
LINE
  8
0
 10
-15.9715
 20
-69.1803
 11
-17.1765
 21
-68.891
  0
LINE
  8
0
 10
-17.1765
 20
-68.891
 11
-18.3761
 21
-68.5807
  0
LINE
  8
0
 10
-18.3761
 20
-68.5807
 11
-19.5703
 21
-68.2496
  0
LINE
  8
0
 10
-19.5703
 20
-68.2496
 11
-20.7584
 21
-67.8976
  0
LINE
  8
0
 10
-20.7584
 20
-67.8976
 11
-21.9402
 21
-67.525
  0
LINE
  8
0
 10
-21.9402
 20
-67.525
 11
-23.1153
 21
-67.1318
  0
LINE
  8
0
 10
-23.1153
 20
-67.1318
 11
-24.2834
 21
-66.7182
  0
LINE
  8
0
 10
-24.2834
 20
-66.7182
 11
-25.4441
 21
-66.2842
  0
LINE
  8
0
 10
-25.4441
 20
-66.2842
 11
-26.5971
 21
-65.83
  0
LINE
  8
0
 10
-26.5971
 20
-65.83
 11
-27.7419
 21
-65.3558
  0
LINE
  8
0
 10
-27.7419
 20
-65.3558
 11
-28.8783
 21
-64.8617
  0
LINE
  8
0
 10
-28.8783
 20
-64.8617
 11
-30.0059
 21
-64.3479
  0
LINE
  8
0
 10
-30.0059
 20
-64.3479
 11
-31.1243
 21
-63.8144
  0
LINE
  8
0
 10
-31.1243
 20
-63.8144
 11
-32.2333
 21
-63.2615
  0
LINE
  8
0
 10
-32.2333
 20
-63.2615
 11
-33.3325
 21
-62.6893
  0
LINE
  8
0
 10
-33.3325
 20
-62.6893
 11
-34.4215
 21
-62.098
  0
LINE
  8
0
 10
-34.4215
 20
-62.098
 11
-35.5
 21
-61.4878
  0
LINE
  8
0
 10
-35.5
 20
-61.4878
 11
-36.5677
 21
-60.8589
  0
LINE
  8
0
 10
-36.5677
 20
-60.8589
 11
-37.6243
 21
-60.2114
  0
LINE
  8
0
 10
-37.6243
 20
-60.2114
 11
-38.6694
 21
-59.5456
  0
LINE
  8
0
 10
-38.6694
 20
-59.5456
 11
-39.7027
 21
-58.8617
  0
LINE
  8
0
 10
-39.7027
 20
-58.8617
 11
-40.7239
 21
-58.1598
  0
LINE
  8
0
 10
-40.7239
 20
-58.1598
 11
-41.7327
 21
-57.4402
  0
LINE
  8
0
 10
-41.7327
 20
-57.4402
 11
-42.7289
 21
-56.7031
  0
LINE
  8
0
 10
-42.7289
 20
-56.7031
 11
-43.712
 21
-55.9488
  0
LINE
  8
0
 10
-43.712
 20
-55.9488
 11
-44.6817
 21
-55.1774
  0
LINE
  8
0
 10
-44.6817
 20
-55.1774
 11
-45.6379
 21
-54.3891
  0
LINE
  8
0
 10
-45.6379
 20
-54.3891
 11
-46.5802
 21
-53.5844
  0
LINE
  8
0
 10
-46.5802
 20
-53.5844
 11
-47.5083
 21
-52.7633
  0
LINE
  8
0
 10
-47.5083
 20
-52.7633
 11
-48.4219
 21
-51.9261
  0
LINE
  8
0
 10
-48.4219
 20
-51.9261
 11
-49.3207
 21
-51.0731
  0
LINE
  8
0
 10
-49.3207
 20
-51.0731
 11
-50.2046
 21
-50.2046
  0
LINE
  8
0
 10
-50.2046
 20
-50.2046
 11
-51.0731
 21
-49.3207
  0
LINE
  8
0
 10
-51.0731
 20
-49.3207
 11
-51.9261
 21
-48.4219
  0
LINE
  8
0
 10
-51.9261
 20
-48.4219
 11
-52.7633
 21
-47.5083
  0
LINE
  8
0
 10
-52.7633
 20
-47.5083
 11
-53.5844
 21
-46.5802
  0
LINE
  8
0
 10
-53.5844
 20
-46.5802
 11
-54.3891
 21
-45.6379
  0
LINE
  8
0
 10
-54.3891
 20
-45.6379
 11
-55.1774
 21
-44.6817
  0
LINE
  8
0
 10
-55.1774
 20
-44.6817
 11
-55.9488
 21
-43.712
  0
LINE
  8
0
 10
-55.9488
 20
-43.712
 11
-56.7031
 21
-42.7289
  0
LINE
  8
0
 10
-56.7031
 20
-42.7289
 11
-57.4402
 21
-41.7327
  0
LINE
  8
0
 10
-57.4402
 20
-41.7327
 11
-58.1598
 21
-40.7239
  0
LINE
  8
0
 10
-58.1598
 20
-40.7239
 11
-58.8617
 21
-39.7027
  0
LINE
  8
0
 10
-58.8617
 20
-39.7027
 11
-59.5456
 21
-38.6694
  0
LINE
  8
0
 10
-59.5456
 20
-38.6694
 11
-60.2114
 21
-37.6243
  0
LINE
  8
0
 10
-60.2114
 20
-37.6243
 11
-60.8589
 21
-36.5677
  0
LINE
  8
0
 10
-60.8589
 20
-36.5677
 11
-61.4878
 21
-35.5
  0
LINE
  8
0
 10
-61.4878
 20
-35.5
 11
-62.098
 21
-34.4215
  0
LINE
  8
0
 10
-62.098
 20
-34.4215
 11
-62.6893
 21
-33.3325
  0
LINE
  8
0
 10
-62.6893
 20
-33.3325
 11
-63.2615
 21
-32.2333
  0
LINE
  8
0
 10
-63.2615
 20
-32.2333
 11
-63.8144
 21
-31.1243
  0
LINE
  8
0
 10
-63.8144
 20
-31.1243
 11
-64.3479
 21
-30.0059
  0
LINE
  8
0
 10
-64.3479
 20
-30.0059
 11
-64.8617
 21
-28.8783
  0
LINE
  8
0
 10
-64.8617
 20
-28.8783
 11
-65.3558
 21
-27.7419
  0
LINE
  8
0
 10
-65.3558
 20
-27.7419
 11
-65.83
 21
-26.5971
  0
LINE
  8
0
 10
-65.83
 20
-26.5971
 11
-66.2842
 21
-25.4441
  0
LINE
  8
0
 10
-66.2842
 20
-25.4441
 11
-66.7182
 21
-24.2834
  0
LINE
  8
0
 10
-66.7182
 20
-24.2834
 11
-67.1318
 21
-23.1153
  0
LINE
  8
0
 10
-67.1318
 20
-23.1153
 11
-67.525
 21
-21.9402
  0
LINE
  8
0
 10
-67.525
 20
-21.9402
 11
-67.8976
 21
-20.7584
  0
LINE
  8
0
 10
-67.8976
 20
-20.7584
 11
-68.2496
 21
-19.5703
  0
LINE
  8
0
 10
-68.2496
 20
-19.5703
 11
-68.5807
 21
-18.3761
  0
LINE
  8
0
 10
-68.5807
 20
-18.3761
 11
-68.891
 21
-17.1765
  0
LINE
  8
0
 10
-68.891
 20
-17.1765
 11
-69.1803
 21
-15.9715
  0
LINE
  8
0
 10
-69.1803
 20
-15.9715
 11
-69.4485
 21
-14.7617
  0
LINE
  8
0
 10
-69.4485
 20
-14.7617
 11
-69.6955
 21
-13.5474
  0
LINE
  8
0
 10
-69.6955
 20
-13.5474
 11
-69.9213
 21
-12.329
  0
LINE
  8
0
 10
-69.9213
 20
-12.329
 11
-70.1259
 21
-11.1068
  0
LINE
  8
0
 10
-70.1259
 20
-11.1068
 11
-70.309
 21
-9.88129
  0
LINE
  8
0
 10
-70.309
 20
-9.88129
 11
-70.4708
 21
-8.65271
  0
LINE
  8
0
 10
-70.4708
 20
-8.65271
 11
-70.6111
 21
-7.42151
  0
LINE
  8
0
 10
-70.6111
 20
-7.42151
 11
-70.7298
 21
-6.18805
  0
LINE
  8
0
 10
-70.7298
 20
-6.18805
 11
-70.827
 21
-4.9527
  0
LINE
  8
0
 10
-70.827
 20
-4.9527
 11
-70.9027
 21
-3.71585
  0
LINE
  8
0
 10
-70.9027
 20
-3.71585
 11
-70.9558
 21
-2.5
  0
LINE
  8
0
 10
-70.9558
 20
-2.5
 11
-68.9539
 21
-2.5
  0
LINE
  8
0
 10
-68.9539
 20
-2.5
 11
-68.958
 21
-2.40805
  0
LINE
  8
0
 10
-68.958
 20
-2.40805
 11
-68.9895
 21
-1.20421
  0
LINE
  8
0
 10
-68.9895
 20
-1.20421
 11
-69
 21
0
  0
LINE
  8
0
 10
-69
 20
0
 11
-68.9895
 21
1.20421
  0
LINE
  8
0
 10
-68.9895
 20
1.20421
 11
-68.958
 21
2.40805
  0
LINE
  8
0
 10
-68.958
 20
2.40805
 11
-68.9539
 21
2.5
  0
LINE
  8
0
 10
-68.9539
 20
2.5
 11
-70.9558
 21
2.5
  0
LINE
  8
0
 10
-70.9558
 20
2.5
 11
-70.9027
 21
3.71585
  0
LINE
  8
0
 10
-70.9027
 20
3.71585
 11
-70.827
 21
4.9527
  0
LINE
  8
0
 10
-70.827
 20
4.9527
 11
-70.7298
 21
6.18805
  0
LINE
  8
0
 10
-70.7298
 20
6.18805
 11
-70.6111
 21
7.42151
  0
LINE
  8
0
 10
-70.6111
 20
7.42151
 11
-70.4708
 21
8.65271
  0
LINE
  8
0
 10
-70.4708
 20
8.65271
 11
-70.309
 21
9.88129
  0
LINE
  8
0
 10
-70.309
 20
9.88129
 11
-70.1259
 21
11.1068
  0
LINE
  8
0
 10
-70.1259
 20
11.1068
 11
-69.9213
 21
12.329
  0
LINE
  8
0
 10
-69.9213
 20
12.329
 11
-69.6955
 21
13.5474
  0
LINE
  8
0
 10
-69.6955
 20
13.5474
 11
-69.4485
 21
14.7617
  0
LINE
  8
0
 10
-69.4485
 20
14.7617
 11
-69.1803
 21
15.9715
  0
LINE
  8
0
 10
-69.1803
 20
15.9715
 11
-68.891
 21
17.1765
  0
LINE
  8
0
 10
-68.891
 20
17.1765
 11
-68.5807
 21
18.3761
  0
LINE
  8
0
 10
-68.5807
 20
18.3761
 11
-68.2496
 21
19.5703
  0
LINE
  8
0
 10
-68.2496
 20
19.5703
 11
-67.8976
 21
20.7584
  0
LINE
  8
0
 10
-67.8976
 20
20.7584
 11
-67.525
 21
21.9402
  0
LINE
  8
0
 10
-67.525
 20
21.9402
 11
-67.1318
 21
23.1153
  0
LINE
  8
0
 10
-67.1318
 20
23.1153
 11
-66.7182
 21
24.2834
  0
LINE
  8
0
 10
-66.7182
 20
24.2834
 11
-66.2842
 21
25.4441
  0
LINE
  8
0
 10
-66.2842
 20
25.4441
 11
-65.83
 21
26.5971
  0
LINE
  8
0
 10
-65.83
 20
26.5971
 11
-65.3558
 21
27.7419
  0
LINE
  8
0
 10
-65.3558
 20
27.7419
 11
-64.8617
 21
28.8783
  0
LINE
  8
0
 10
-64.8617
 20
28.8783
 11
-64.3479
 21
30.0059
  0
LINE
  8
0
 10
-64.3479
 20
30.0059
 11
-63.8144
 21
31.1243
  0
LINE
  8
0
 10
-63.8144
 20
31.1243
 11
-63.2615
 21
32.2333
  0
LINE
  8
0
 10
-63.2615
 20
32.2333
 11
-62.6893
 21
33.3325
  0
LINE
  8
0
 10
-62.6893
 20
33.3325
 11
-62.098
 21
34.4215
  0
LINE
  8
0
 10
-62.098
 20
34.4215
 11
-61.4878
 21
35.5
  0
LINE
  8
0
 10
-61.4878
 20
35.5
 11
-60.8589
 21
36.5677
  0
LINE
  8
0
 10
-60.8589
 20
36.5677
 11
-60.2114
 21
37.6243
  0
LINE
  8
0
 10
-60.2114
 20
37.6243
 11
-59.5456
 21
38.6694
  0
LINE
  8
0
 10
-59.5456
 20
38.6694
 11
-58.8617
 21
39.7027
  0
LINE
  8
0
 10
-58.8617
 20
39.7027
 11
-58.1598
 21
40.7239
  0
LINE
  8
0
 10
-58.1598
 20
40.7239
 11
-57.4402
 21
41.7327
  0
LINE
  8
0
 10
-57.4402
 20
41.7327
 11
-56.7031
 21
42.7289
  0
LINE
  8
0
 10
-56.7031
 20
42.7289
 11
-55.9488
 21
43.712
  0
LINE
  8
0
 10
-55.9488
 20
43.712
 11
-55.1774
 21
44.6817
  0
LINE
  8
0
 10
-55.1774
 20
44.6817
 11
-54.3891
 21
45.6379
  0
LINE
  8
0
 10
-54.3891
 20
45.6379
 11
-53.5844
 21
46.5802
  0
LINE
  8
0
 10
-53.5844
 20
46.5802
 11
-52.7633
 21
47.5083
  0
LINE
  8
0
 10
-52.7633
 20
47.5083
 11
-51.9261
 21
48.4219
  0
LINE
  8
0
 10
-51.9261
 20
48.4219
 11
-51.0731
 21
49.3207
  0
LINE
  8
0
 10
-51.0731
 20
49.3207
 11
-50.2046
 21
50.2046
  0
LINE
  8
0
 10
-50.2046
 20
50.2046
 11
-49.3207
 21
51.0731
  0
LINE
  8
0
 10
-49.3207
 20
51.0731
 11
-48.4219
 21
51.9261
  0
LINE
  8
0
 10
-48.4219
 20
51.9261
 11
-47.5083
 21
52.7633
  0
LINE
  8
0
 10
-47.5083
 20
52.7633
 11
-46.5802
 21
53.5844
  0
LINE
  8
0
 10
-46.5802
 20
53.5844
 11
-45.6379
 21
54.3891
  0
LINE
  8
0
 10
-45.6379
 20
54.3891
 11
-44.6817
 21
55.1774
  0
LINE
  8
0
 10
-44.6817
 20
55.1774
 11
-43.712
 21
55.9488
  0
LINE
  8
0
 10
-43.712
 20
55.9488
 11
-42.7289
 21
56.7031
  0
LINE
  8
0
 10
-42.7289
 20
56.7031
 11
-41.7327
 21
57.4402
  0
LINE
  8
0
 10
-41.7327
 20
57.4402
 11
-40.7239
 21
58.1598
  0
LINE
  8
0
 10
-40.7239
 20
58.1598
 11
-39.7027
 21
58.8617
  0
LINE
  8
0
 10
-39.7027
 20
58.8617
 11
-38.6694
 21
59.5456
  0
LINE
  8
0
 10
-38.6694
 20
59.5456
 11
-37.6243
 21
60.2114
  0
LINE
  8
0
 10
-37.6243
 20
60.2114
 11
-36.5677
 21
60.8589
  0
LINE
  8
0
 10
-36.5677
 20
60.8589
 11
-35.5
 21
61.4878
  0
LINE
  8
0
 10
-35.5
 20
61.4878
 11
-34.4215
 21
62.098
  0
LINE
  8
0
 10
-34.4215
 20
62.098
 11
-33.3325
 21
62.6893
  0
LINE
  8
0
 10
-33.3325
 20
62.6893
 11
-32.2333
 21
63.2615
  0
LINE
  8
0
 10
-32.2333
 20
63.2615
 11
-31.1243
 21
63.8144
  0
LINE
  8
0
 10
-31.1243
 20
63.8144
 11
-30.0059
 21
64.3479
  0
LINE
  8
0
 10
-30.0059
 20
64.3479
 11
-28.8783
 21
64.8617
  0
LINE
  8
0
 10
-28.8783
 20
64.8617
 11
-27.7419
 21
65.3558
  0
LINE
  8
0
 10
-27.7419
 20
65.3558
 11
-26.5971
 21
65.83
  0
LINE
  8
0
 10
-26.5971
 20
65.83
 11
-25.4441
 21
66.2842
  0
LINE
  8
0
 10
-25.4441
 20
66.2842
 11
-24.2834
 21
66.7182
  0
LINE
  8
0
 10
-24.2834
 20
66.7182
 11
-23.1153
 21
67.1318
  0
LINE
  8
0
 10
-23.1153
 20
67.1318
 11
-21.9402
 21
67.525
  0
LINE
  8
0
 10
-21.9402
 20
67.525
 11
-20.7584
 21
67.8976
  0
LINE
  8
0
 10
-20.7584
 20
67.8976
 11
-19.5703
 21
68.2496
  0
LINE
  8
0
 10
-19.5703
 20
68.2496
 11
-18.3761
 21
68.5807
  0
LINE
  8
0
 10
-18.3761
 20
68.5807
 11
-17.1765
 21
68.891
  0
LINE
  8
0
 10
-17.1765
 20
68.891
 11
-15.9715
 21
69.1803
  0
LINE
  8
0
 10
-15.9715
 20
69.1803
 11
-14.7617
 21
69.4485
  0
LINE
  8
0
 10
-14.7617
 20
69.4485
 11
-13.5474
 21
69.6955
  0
LINE
  8
0
 10
-13.5474
 20
69.6955
 11
-12.329
 21
69.9213
  0
LINE
  8
0
 10
-12.329
 20
69.9213
 11
-11.1068
 21
70.1259
  0
LINE
  8
0
 10
-11.1068
 20
70.1259
 11
-9.88129
 21
70.309
  0
LINE
  8
0
 10
-9.88129
 20
70.309
 11
-8.65271
 21
70.4708
  0
LINE
  8
0
 10
-8.65271
 20
70.4708
 11
-7.42151
 21
70.6111
  0
LINE
  8
0
 10
-7.42151
 20
70.6111
 11
-6.18805
 21
70.7298
  0
LINE
  8
0
 10
-6.18805
 20
70.7298
 11
-4.9527
 21
70.827
  0
LINE
  8
0
 10
-4.9527
 20
70.827
 11
-3.71585
 21
70.9027
  0
LINE
  8
0
 10
-3.71585
 20
70.9027
 11
-2.5
 21
70.9558
  0
LINE
  8
0
 10
-2.5
 20
70.9558
 11
-2.5
 21
68.9539
  0
LINE
  8
0
 10
-2.5
 20
68.9539
 11
-2.40805
 21
68.958
  0
LINE
  8
0
 10
-2.40805
 20
68.958
 11
-1.20421
 21
68.9895
  0
LINE
  8
0
 10
-1.20421
 20
68.9895
 11
0
 21
69
  0
LINE
  8
0
 10
0
 20
69
 11
1.20421
 21
68.9895
  0
LINE
  8
0
 10
1.20421
 20
68.9895
 11
2.40805
 21
68.958
  0
LINE
  8
0
 10
2.40805
 20
68.958
 11
2.5
 21
68.9539
  0
LINE
  8
0
 10
2.5
 20
68.9539
 11
2.5
 21
70.9558
  0
LINE
  8
0
 10
2.5
 20
70.9558
 11
3.71585
 21
70.9027
  0
LINE
  8
0
 10
3.71585
 20
70.9027
 11
4.9527
 21
70.827
  0
LINE
  8
0
 10
4.9527
 20
70.827
 11
6.18805
 21
70.7298
  0
LINE
  8
0
 10
6.18805
 20
70.7298
 11
7.42151
 21
70.6111
  0
LINE
  8
0
 10
7.42151
 20
70.6111
 11
8.65271
 21
70.4708
  0
LINE
  8
0
 10
8.65271
 20
70.4708
 11
9.88129
 21
70.309
  0
LINE
  8
0
 10
9.88129
 20
70.309
 11
11.1068
 21
70.1259
  0
LINE
  8
0
 10
11.1068
 20
70.1259
 11
12.329
 21
69.9213
  0
LINE
  8
0
 10
12.329
 20
69.9213
 11
13.5474
 21
69.6955
  0
LINE
  8
0
 10
13.5474
 20
69.6955
 11
14.7617
 21
69.4485
  0
LINE
  8
0
 10
14.7617
 20
69.4485
 11
15.9715
 21
69.1803
  0
LINE
  8
0
 10
15.9715
 20
69.1803
 11
17.1765
 21
68.891
  0
LINE
  8
0
 10
17.1765
 20
68.891
 11
18.3761
 21
68.5807
  0
LINE
  8
0
 10
18.3761
 20
68.5807
 11
19.5703
 21
68.2496
  0
LINE
  8
0
 10
19.5703
 20
68.2496
 11
20.7584
 21
67.8976
  0
LINE
  8
0
 10
20.7584
 20
67.8976
 11
21.9402
 21
67.525
  0
LINE
  8
0
 10
21.9402
 20
67.525
 11
23.1153
 21
67.1318
  0
LINE
  8
0
 10
23.1153
 20
67.1318
 11
24.2834
 21
66.7182
  0
LINE
  8
0
 10
24.2834
 20
66.7182
 11
25.4441
 21
66.2842
  0
LINE
  8
0
 10
25.4441
 20
66.2842
 11
26.5971
 21
65.83
  0
LINE
  8
0
 10
26.5971
 20
65.83
 11
27.7419
 21
65.3558
  0
LINE
  8
0
 10
27.7419
 20
65.3558
 11
28.8783
 21
64.8617
  0
LINE
  8
0
 10
28.8783
 20
64.8617
 11
30.0059
 21
64.3479
  0
LINE
  8
0
 10
30.0059
 20
64.3479
 11
31.1243
 21
63.8144
  0
LINE
  8
0
 10
31.1243
 20
63.8144
 11
32.2333
 21
63.2615
  0
LINE
  8
0
 10
32.2333
 20
63.2615
 11
33.3325
 21
62.6893
  0
LINE
  8
0
 10
33.3325
 20
62.6893
 11
34.4215
 21
62.098
  0
LINE
  8
0
 10
34.4215
 20
62.098
 11
35.5
 21
61.4878
  0
LINE
  8
0
 10
35.5
 20
61.4878
 11
36.5677
 21
60.8589
  0
LINE
  8
0
 10
36.5677
 20
60.8589
 11
37.6243
 21
60.2114
  0
LINE
  8
0
 10
37.6243
 20
60.2114
 11
38.6694
 21
59.5456
  0
LINE
  8
0
 10
38.6694
 20
59.5456
 11
39.7027
 21
58.8617
  0
LINE
  8
0
 10
39.7027
 20
58.8617
 11
40.7239
 21
58.1598
  0
LINE
  8
0
 10
40.7239
 20
58.1598
 11
41.7327
 21
57.4402
  0
LINE
  8
0
 10
41.7327
 20
57.4402
 11
42.7289
 21
56.7031
  0
LINE
  8
0
 10
42.7289
 20
56.7031
 11
43.712
 21
55.9488
  0
LINE
  8
0
 10
43.712
 20
55.9488
 11
44.6817
 21
55.1774
  0
LINE
  8
0
 10
44.6817
 20
55.1774
 11
45.6379
 21
54.3891
  0
LINE
  8
0
 10
45.6379
 20
54.3891
 11
46.5802
 21
53.5844
  0
LINE
  8
0
 10
46.5802
 20
53.5844
 11
47.5083
 21
52.7633
  0
LINE
  8
0
 10
47.5083
 20
52.7633
 11
48.4219
 21
51.9261
  0
LINE
  8
0
 10
48.4219
 20
51.9261
 11
49.3207
 21
51.0731
  0
LINE
  8
0
 10
49.3207
 20
51.0731
 11
50.2046
 21
50.2046
  0
LINE
  8
0
 10
50.2046
 20
50.2046
 11
51.0731
 21
49.3207
  0
LINE
  8
0
 10
51.0731
 20
49.3207
 11
51.9261
 21
48.4219
  0
LINE
  8
0
 10
51.9261
 20
48.4219
 11
52.7633
 21
47.5083
  0
LINE
  8
0
 10
52.7633
 20
47.5083
 11
53.5844
 21
46.5802
  0
LINE
  8
0
 10
53.5844
 20
46.5802
 11
54.3891
 21
45.6379
  0
LINE
  8
0
 10
54.3891
 20
45.6379
 11
55.1774
 21
44.6817
  0
LINE
  8
0
 10
55.1774
 20
44.6817
 11
55.9488
 21
43.712
  0
LINE
  8
0
 10
55.9488
 20
43.712
 11
56.7031
 21
42.7289
  0
LINE
  8
0
 10
56.7031
 20
42.7289
 11
57.4402
 21
41.7327
  0
LINE
  8
0
 10
57.4402
 20
41.7327
 11
58.1598
 21
40.7239
  0
LINE
  8
0
 10
58.1598
 20
40.7239
 11
58.8617
 21
39.7027
  0
LINE
  8
0
 10
58.8617
 20
39.7027
 11
59.5456
 21
38.6694
  0
LINE
  8
0
 10
59.5456
 20
38.6694
 11
60.2114
 21
37.6243
  0
LINE
  8
0
 10
60.2114
 20
37.6243
 11
60.8589
 21
36.5677
  0
LINE
  8
0
 10
60.8589
 20
36.5677
 11
61.4878
 21
35.5
  0
LINE
  8
0
 10
61.4878
 20
35.5
 11
62.098
 21
34.4215
  0
LINE
  8
0
 10
62.098
 20
34.4215
 11
62.6893
 21
33.3325
  0
LINE
  8
0
 10
62.6893
 20
33.3325
 11
63.2615
 21
32.2333
  0
LINE
  8
0
 10
63.2615
 20
32.2333
 11
63.8144
 21
31.1243
  0
LINE
  8
0
 10
63.8144
 20
31.1243
 11
64.3479
 21
30.0059
  0
LINE
  8
0
 10
64.3479
 20
30.0059
 11
64.8617
 21
28.8783
  0
LINE
  8
0
 10
64.8617
 20
28.8783
 11
65.3558
 21
27.7419
  0
LINE
  8
0
 10
65.3558
 20
27.7419
 11
65.83
 21
26.5971
  0
LINE
  8
0
 10
65.83
 20
26.5971
 11
66.2842
 21
25.4441
  0
LINE
  8
0
 10
66.2842
 20
25.4441
 11
66.7182
 21
24.2834
  0
LINE
  8
0
 10
66.7182
 20
24.2834
 11
67.1318
 21
23.1153
  0
LINE
  8
0
 10
67.1318
 20
23.1153
 11
67.525
 21
21.9402
  0
LINE
  8
0
 10
67.525
 20
21.9402
 11
67.8976
 21
20.7584
  0
LINE
  8
0
 10
67.8976
 20
20.7584
 11
68.2496
 21
19.5703
  0
LINE
  8
0
 10
68.2496
 20
19.5703
 11
68.5807
 21
18.3761
  0
LINE
  8
0
 10
68.5807
 20
18.3761
 11
68.891
 21
17.1765
  0
LINE
  8
0
 10
68.891
 20
17.1765
 11
69.1803
 21
15.9715
  0
LINE
  8
0
 10
69.1803
 20
15.9715
 11
69.4485
 21
14.7617
  0
LINE
  8
0
 10
69.4485
 20
14.7617
 11
69.6955
 21
13.5474
  0
LINE
  8
0
 10
69.6955
 20
13.5474
 11
69.9213
 21
12.329
  0
LINE
  8
0
 10
69.9213
 20
12.329
 11
70.1259
 21
11.1068
  0
LINE
  8
0
 10
70.1259
 20
11.1068
 11
70.309
 21
9.88129
  0
LINE
  8
0
 10
70.309
 20
9.88129
 11
70.4708
 21
8.65271
  0
LINE
  8
0
 10
70.4708
 20
8.65271
 11
70.6111
 21
7.42151
  0
LINE
  8
0
 10
70.6111
 20
7.42151
 11
70.7298
 21
6.18805
  0
LINE
  8
0
 10
70.7298
 20
6.18805
 11
70.827
 21
4.9527
  0
LINE
  8
0
 10
70.827
 20
4.9527
 11
70.9027
 21
3.71585
  0
LINE
  8
0
 10
70.9027
 20
3.71585
 11
70.9558
 21
2.5
  0
LINE
  8
0
 10
70.9558
 20
2.5
 11
68.9539
 21
2.5
  0
LINE
  8
0
 10
68.9539
 20
2.5
 11
68.958
 21
2.40805
  0
LINE
  8
0
 10
68.958
 20
2.40805
 11
68.9895
 21
1.20421
  0
LINE
  8
0
 10
68.9895
 20
1.20421
 11
69
 21
0
  0
LINE
  8
0
 10
69
 20
0
 11
68.9895
 21
-1.20421
  0
LINE
  8
0
 10
68.9895
 20
-1.20421
 11
68.958
 21
-2.40805
  0
LINE
  8
0
 10
68.958
 20
-2.40805
 11
68.9539
 21
-2.5
  0
LINE
  8
0
 10
68.9539
 20
-2.5
 11
70.9558
 21
-2.5
  0
LINE
  8
0
 10
70.9558
 20
-2.5
 11
70.9027
 21
-3.71585
  0
LINE
  8
0
 10
70.9027
 20
-3.71585
 11
70.827
 21
-4.9527
  0
LINE
  8
0
 10
70.827
 20
-4.9527
 11
70.7298
 21
-6.18805
  0
LINE
  8
0
 10
70.7298
 20
-6.18805
 11
70.6111
 21
-7.42151
  0
LINE
  8
0
 10
70.6111
 20
-7.42151
 11
70.4708
 21
-8.65271
  0
LINE
  8
0
 10
70.4708
 20
-8.65271
 11
70.309
 21
-9.88129
  0
LINE
  8
0
 10
70.309
 20
-9.88129
 11
70.1259
 21
-11.1068
  0
LINE
  8
0
 10
70.1259
 20
-11.1068
 11
69.9213
 21
-12.329
  0
LINE
  8
0
 10
69.9213
 20
-12.329
 11
69.6955
 21
-13.5474
  0
LINE
  8
0
 10
69.6955
 20
-13.5474
 11
69.4485
 21
-14.7617
  0
LINE
  8
0
 10
69.4485
 20
-14.7617
 11
69.1803
 21
-15.9715
  0
LINE
  8
0
 10
69.1803
 20
-15.9715
 11
68.891
 21
-17.1765
  0
LINE
  8
0
 10
68.891
 20
-17.1765
 11
68.5807
 21
-18.3761
  0
LINE
  8
0
 10
68.5807
 20
-18.3761
 11
68.2496
 21
-19.5703
  0
LINE
  8
0
 10
68.2496
 20
-19.5703
 11
67.8976
 21
-20.7584
  0
LINE
  8
0
 10
67.8976
 20
-20.7584
 11
67.525
 21
-21.9402
  0
LINE
  8
0
 10
67.525
 20
-21.9402
 11
67.1318
 21
-23.1153
  0
LINE
  8
0
 10
67.1318
 20
-23.1153
 11
66.7182
 21
-24.2834
  0
LINE
  8
0
 10
66.7182
 20
-24.2834
 11
66.2842
 21
-25.4441
  0
LINE
  8
0
 10
66.2842
 20
-25.4441
 11
65.83
 21
-26.5971
  0
LINE
  8
0
 10
65.83
 20
-26.5971
 11
65.3558
 21
-27.7419
  0
LINE
  8
0
 10
65.3558
 20
-27.7419
 11
64.8617
 21
-28.8783
  0
LINE
  8
0
 10
64.8617
 20
-28.8783
 11
64.3479
 21
-30.0059
  0
LINE
  8
0
 10
64.3479
 20
-30.0059
 11
63.8144
 21
-31.1243
  0
LINE
  8
0
 10
63.8144
 20
-31.1243
 11
63.2615
 21
-32.2333
  0
LINE
  8
0
 10
63.2615
 20
-32.2333
 11
62.6893
 21
-33.3325
  0
LINE
  8
0
 10
62.6893
 20
-33.3325
 11
62.098
 21
-34.4215
  0
LINE
  8
0
 10
62.098
 20
-34.4215
 11
61.4878
 21
-35.5
  0
LINE
  8
0
 10
61.4878
 20
-35.5
 11
60.8589
 21
-36.5677
  0
LINE
  8
0
 10
60.8589
 20
-36.5677
 11
60.2114
 21
-37.6243
  0
LINE
  8
0
 10
60.2114
 20
-37.6243
 11
59.5456
 21
-38.6694
  0
LINE
  8
0
 10
59.5456
 20
-38.6694
 11
58.8617
 21
-39.7027
  0
LINE
  8
0
 10
58.8617
 20
-39.7027
 11
58.1598
 21
-40.7239
  0
LINE
  8
0
 10
58.1598
 20
-40.7239
 11
57.4402
 21
-41.7327
  0
LINE
  8
0
 10
57.4402
 20
-41.7327
 11
56.7031
 21
-42.7289
  0
LINE
  8
0
 10
56.7031
 20
-42.7289
 11
55.9488
 21
-43.712
  0
LINE
  8
0
 10
55.9488
 20
-43.712
 11
55.1774
 21
-44.6817
  0
LINE
  8
0
 10
55.1774
 20
-44.6817
 11
54.3891
 21
-45.6379
  0
LINE
  8
0
 10
54.3891
 20
-45.6379
 11
53.5844
 21
-46.5802
  0
LINE
  8
0
 10
53.5844
 20
-46.5802
 11
52.7633
 21
-47.5083
  0
LINE
  8
0
 10
52.7633
 20
-47.5083
 11
51.9261
 21
-48.4219
  0
LINE
  8
0
 10
51.9261
 20
-48.4219
 11
51.0731
 21
-49.3207
  0
LINE
  8
0
 10
51.0731
 20
-49.3207
 11
50.2046
 21
-50.2046
  0
LINE
  8
0
 10
50.2046
 20
-50.2046
 11
49.3207
 21
-51.0731
  0
LINE
  8
0
 10
49.3207
 20
-51.0731
 11
48.4219
 21
-51.9261
  0
LINE
  8
0
 10
48.4219
 20
-51.9261
 11
47.5083
 21
-52.7633
  0
LINE
  8
0
 10
47.5083
 20
-52.7633
 11
46.5802
 21
-53.5844
  0
LINE
  8
0
 10
46.5802
 20
-53.5844
 11
45.6379
 21
-54.3891
  0
LINE
  8
0
 10
45.6379
 20
-54.3891
 11
44.6817
 21
-55.1774
  0
LINE
  8
0
 10
44.6817
 20
-55.1774
 11
43.712
 21
-55.9488
  0
LINE
  8
0
 10
43.712
 20
-55.9488
 11
42.7289
 21
-56.7031
  0
LINE
  8
0
 10
42.7289
 20
-56.7031
 11
41.7327
 21
-57.4402
  0
LINE
  8
0
 10
41.7327
 20
-57.4402
 11
40.7239
 21
-58.1598
  0
LINE
  8
0
 10
40.7239
 20
-58.1598
 11
39.7027
 21
-58.8617
  0
LINE
  8
0
 10
39.7027
 20
-58.8617
 11
38.6694
 21
-59.5456
  0
LINE
  8
0
 10
38.6694
 20
-59.5456
 11
37.6243
 21
-60.2114
  0
LINE
  8
0
 10
37.6243
 20
-60.2114
 11
36.5677
 21
-60.8589
  0
LINE
  8
0
 10
36.5677
 20
-60.8589
 11
35.5
 21
-61.4878
  0
LINE
  8
0
 10
35.5
 20
-61.4878
 11
34.4215
 21
-62.098
  0
LINE
  8
0
 10
34.4215
 20
-62.098
 11
33.3325
 21
-62.6893
  0
LINE
  8
0
 10
33.3325
 20
-62.6893
 11
32.2333
 21
-63.2615
  0
LINE
  8
0
 10
32.2333
 20
-63.2615
 11
31.1243
 21
-63.8144
  0
LINE
  8
0
 10
31.1243
 20
-63.8144
 11
30.0059
 21
-64.3479
  0
LINE
  8
0
 10
30.0059
 20
-64.3479
 11
28.8783
 21
-64.8617
  0
LINE
  8
0
 10
28.8783
 20
-64.8617
 11
27.7419
 21
-65.3558
  0
LINE
  8
0
 10
27.7419
 20
-65.3558
 11
26.5971
 21
-65.83
  0
LINE
  8
0
 10
26.5971
 20
-65.83
 11
25.4441
 21
-66.2842
  0
LINE
  8
0
 10
25.4441
 20
-66.2842
 11
24.2834
 21
-66.7182
  0
LINE
  8
0
 10
24.2834
 20
-66.7182
 11
23.1153
 21
-67.1318
  0
LINE
  8
0
 10
23.1153
 20
-67.1318
 11
21.9402
 21
-67.525
  0
LINE
  8
0
 10
21.9402
 20
-67.525
 11
20.7584
 21
-67.8976
  0
LINE
  8
0
 10
20.7584
 20
-67.8976
 11
19.5703
 21
-68.2496
  0
LINE
  8
0
 10
19.5703
 20
-68.2496
 11
18.3761
 21
-68.5807
  0
LINE
  8
0
 10
18.3761
 20
-68.5807
 11
17.1765
 21
-68.891
  0
LINE
  8
0
 10
17.1765
 20
-68.891
 11
15.9715
 21
-69.1803
  0
LINE
  8
0
 10
15.9715
 20
-69.1803
 11
14.7617
 21
-69.4485
  0
LINE
  8
0
 10
14.7617
 20
-69.4485
 11
13.5474
 21
-69.6955
  0
LINE
  8
0
 10
13.5474
 20
-69.6955
 11
12.329
 21
-69.9213
  0
LINE
  8
0
 10
12.329
 20
-69.9213
 11
11.1068
 21
-70.1259
  0
LINE
  8
0
 10
11.1068
 20
-70.1259
 11
9.88129
 21
-70.309
  0
LINE
  8
0
 10
9.88129
 20
-70.309
 11
8.65271
 21
-70.4708
  0
LINE
  8
0
 10
8.65271
 20
-70.4708
 11
7.42151
 21
-70.6111
  0
LINE
  8
0
 10
7.42151
 20
-70.6111
 11
6.18805
 21
-70.7298
  0
LINE
  8
0
 10
6.18805
 20
-70.7298
 11
4.9527
 21
-70.827
  0
LINE
  8
0
 10
4.9527
 20
-70.827
 11
3.71585
 21
-70.9027
  0
LINE
  8
0
 10
3.71585
 20
-70.9027
 11
2.5
 21
-70.9558
  0
LINE
  8
0
 10
2.5
 20
-70.9558
 11
2.5
 21
-68.9539
  0
ENDSEC
  0
SECTION
  2
OBJECTS
  0
DICTIONARY
  0
ENDSEC
  0
EOF
