<?xml version="1.0" standalone="no"?>
<!DOCTYPE svg PUBLIC "-//W3C//DTD SVG 1.1//EN" "http://www.w3.org/Graphics/SVG/1.1/DTD/svg11.dtd">
<svg width="207mm" height="176mm" viewBox="-88 -88 207 176" xmlns="http://www.w3.org/2000/svg" version="1.1">
<title>OpenSCAD Model</title>
<path d="
M 82.5,-24.2737 L 82.2422,-25.144 L 81.7909,-26.5755 L 81.3146,-27.9989 L 80.8136,-29.4137 L 80.2879,-30.8196
 L 79.7378,-32.2162 L 79.1634,-33.6029 L 78.5649,-34.9793 L 77.9425,-36.3452 L 77.2963,-37.6999 L 76.6266,-39.0432
 L 75.9335,-40.3745 L 75.2173,-41.6936 L 74.4782,-43 L 73.7164,-44.2933 L 72.9321,-45.573 L 72.1257,-46.839
 L 71.2972,-48.0906 L 70.4471,-49.3276 L 69.5755,-50.5495 L 68.6826,-51.7561 L 67.7689,-52.9469 L 66.8345,-54.1216
 L 65.8798,-55.2797 L 64.905,-56.4211 L 63.9104,-57.5452 L 62.8964,-58.6519 L 61.8632,-59.7406 L 60.8112,-60.8112
 L 59.7406,-61.8632 L 58.6519,-62.8964 L 57.5452,-63.9104 L 56.4211,-64.905 L 55.2797,-65.8798 L 54.1216,-66.8345
 L 52.9469,-67.7689 L 51.7561,-68.6826 L 50.5495,-69.5755 L 49.3276,-70.4471 L 48.0906,-71.2972 L 46.839,-72.1257
 L 45.573,-72.9321 L 44.2933,-73.7164 L 43,-74.4782 L 41.6936,-75.2173 L 40.3745,-75.9335 L 39.0432,-76.6266
 L 37.6999,-77.2963 L 36.3452,-77.9425 L 34.9793,-78.5649 L 33.6029,-79.1634 L 32.2162,-79.7378 L 30.8196,-80.2879
 L 29.4137,-80.8136 L 27.9989,-81.3146 L 26.5755,-81.7909 L 25.144,-82.2422 L 23.7048,-82.6685 L 22.2584,-83.0696
 L 20.8053,-83.4454 L 19.3458,-83.7958 L 17.8804,-84.1207 L 16.4096,-84.4199 L 14.9337,-84.6935 L 13.4534,-84.9412
 L 11.9689,-85.1631 L 10.4808,-85.359 L 8.98944,-85.5289 L 7.49539,-85.6727 L 5.99905,-85.7905 L 4.50089,-85.8821
 L 3.00134,-85.9476 L 2.5,-85.9607 L 2.5,-87.9613 L 1.5358,-87.9866 L 0,-88 L -1.5358,-87.9866
 L -2.5,-87.9613 L -2.5,-85.9607 L -3.00134,-85.9476 L -4.50089,-85.8821 L -5.99905,-85.7905 L -7.49539,-85.6727
 L -8.98944,-85.5289 L -10.4808,-85.359 L -11.9689,-85.1631 L -13.4534,-84.9412 L -14.9337,-84.6935 L -16.4096,-84.4199
 L -17.8804,-84.1207 L -19.3458,-83.7958 L -20.8053,-83.4454 L -22.2584,-83.0696 L -23.7048,-82.6685 L -25.144,-82.2422
 L -26.5755,-81.7909 L -27.9989,-81.3146 L -29.4137,-80.8136 L -30.8196,-80.2879 L -32.2162,-79.7378 L -33.6029,-79.1634
 L -34.9793,-78.5649 L -36.3452,-77.9425 L -37.6999,-77.2963 L -39.0432,-76.6266 L -40.3745,-75.9335 L -41.6936,-75.2173
 L -43,-74.4782 L -44.2933,-73.7164 L -45.573,-72.9321 L -46.839,-72.1257 L -48.0906,-71.2972 L -49.3276,-70.4471
 L -50.5495,-69.5755 L -51.7561,-68.6826 L -52.9469,-67.7689 L -54.1216,-66.8345 L -55.2797,-65.8798 L -56.4211,-64.905
 L -57.5452,-63.9104 L -58.6519,-62.8964 L -59.7406,-61.8632 L -60.8112,-60.8112 L -61.8632,-59.7406 L -62.8964,-58.6519
 L -63.9104,-57.5452 L -64.905,-56.4211 L -65.8798,-55.2797 L -66.8345,-54.1216 L -67.7689,-52.9469 L -68.6826,-51.7561
 L -69.5755,-50.5495 L -70.4471,-49.3276 L -71.2972,-48.0906 L -72.1257,-46.839 L -72.9321,-45.573 L -73.7164,-44.2933
 L -74.4782,-43 L -75.2173,-41.6936 L -75.9335,-40.3745 L -76.6266,-39.0432 L -77.2963,-37.6999 L -77.9425,-36.3452
 L -78.5649,-34.9793 L -79.1634,-33.6029 L -79.7378,-32.2162 L -80.2879,-30.8196 L -80.8136,-29.4137 L -81.3146,-27.9989
 L -81.7909,-26.5755 L -82.2422,-25.144 L -82.6685,-23.7048 L -83.0696,-22.2584 L -83.4454,-20.8053 L -83.7958,-19.3458
 L -84.1207,-17.8804 L -84.4199,-16.4096 L -84.6935,-14.9337 L -84.9412,-13.4534 L -85.1631,-11.9689 L -85.359,-10.4808
 L -85.5289,-8.98944 L -85.6727,-7.49539 L -85.7905,-5.99905 L -85.8821,-4.50089 L -85.9476,-3.00134 L -85.9607,-2.5
 L -87.9613,-2.5 L -87.9866,-1.5358 L -88,-0 L -87.9866,1.5358 L -87.9613,2.5 L -85.9607,2.5
 L -85.9476,3.00134 L -85.8821,4.50089 L -85.7905,5.99905 L -85.6727,7.49539 L -85.5289,8.98944 L -85.359,10.4808
 L -85.1631,11.9689 L -84.9412,13.4534 L -84.6935,14.9337 L -84.4199,16.4096 L -84.1207,17.8804 L -83.7958,19.3458
 L -83.4454,20.8053 L -83.0696,22.2584 L -82.6685,23.7048 L -82.2422,25.144 L -81.7909,26.5755 L -81.3146,27.9989
 L -80.8136,29.4137 L -80.2879,30.8196 L -79.7378,32.2162 L -79.1634,33.6029 L -78.5649,34.9793 L -77.9425,36.3452
 L -77.2963,37.6999 L -76.6266,39.0432 L -75.9335,40.3745 L -75.2173,41.6936 L -74.4782,43 L -73.7164,44.2933
 L -72.9321,45.573 L -72.1257,46.839 L -71.2972,48.0906 L -70.4471,49.3276 L -69.5755,50.5495 L -68.6826,51.7561
 L -67.7689,52.9469 L -66.8345,54.1216 L -65.8798,55.2797 L -64.905,56.4211 L -63.9104,57.5452 L -62.8964,58.6519
 L -61.8632,59.7406 L -60.8112,60.8112 L -59.7406,61.8632 L -58.6519,62.8964 L -57.5452,63.9104 L -56.4211,64.905
 L -55.2797,65.8798 L -54.1216,66.8345 L -52.9469,67.7689 L -51.7561,68.6826 L -50.5495,69.5755 L -49.3276,70.4471
 L -48.0906,71.2972 L -46.839,72.1257 L -45.573,72.9321 L -44.2933,73.7164 L -43,74.4782 L -41.6936,75.2173
 L -40.3745,75.9335 L -39.0432,76.6266 L -37.6999,77.2963 L -36.3452,77.9425 L -34.9793,78.5649 L -33.6029,79.1634
 L -32.2162,79.7378 L -30.8196,80.2879 L -29.4137,80.8136 L -27.9989,81.3146 L -26.5755,81.7909 L -25.144,82.2422
 L -23.7048,82.6685 L -22.2584,83.0696 L -20.8053,83.4454 L -19.3458,83.7958 L -17.8804,84.1207 L -16.4096,84.4199
 L -14.9337,84.6935 L -13.4534,84.9412 L -11.9689,85.1631 L -10.4808,85.359 L -8.98944,85.5289 L -7.49539,85.6727
 L -5.99905,85.7905 L -4.50089,85.8821 L -3.00134,85.9476 L -2.5,85.9607 L -2.5,87.9613 L -1.5358,87.9866
 L 0,88 L 1.5358,87.9866 L 2.5,87.9613 L 2.5,85.9607 L 3.00134,85.9476 L 4.50089,85.8821
 L 5.99905,85.7905 L 7.49539,85.6727 L 8.98944,85.5289 L 10.4808,85.359 L 11.9689,85.1631 L 13.4534,84.9412
 L 14.9337,84.6935 L 16.4096,84.4199 L 17.8804,84.1207 L 19.3458,83.7958 L 20.8053,83.4454 L 22.2584,83.0696
 L 23.7048,82.6685 L 25.144,82.2422 L 26.5755,81.7909 L 27.9989,81.3146 L 29.4137,80.8136 L 30.8196,80.2879
 L 32.2162,79.7378 L 33.6029,79.1634 L 34.9793,78.5649 L 36.3452,77.9425 L 37.6999,77.2963 L 39.0432,76.6266
 L 40.3745,75.9335 L 41.6936,75.2173 L 43,74.4782 L 44.2933,73.7164 L 45.573,72.9321 L 46.839,72.1257
 L 48.0906,71.2972 L 49.3276,70.4471 L 50.5495,69.5755 L 51.7561,68.6826 L 52.9469,67.7689 L 54.1216,66.8345
 L 55.2797,65.8798 L 56.4211,64.905 L 57.5452,63.9104 L 58.6519,62.8964 L 59.7406,61.8632 L 60.8112,60.8112
 L 61.8632,59.7406 L 62.8964,58.6519 L 63.9104,57.5452 L 64.905,56.4211 L 65.8798,55.2797 L 66.8345,54.1216
 L 67.7689,52.9469 L 68.6826,51.7561 L 69.5755,50.5495 L 70.4471,49.3276 L 71.2972,48.0906 L 72.1257,46.839
 L 72.9321,45.573 L 73.7164,44.2933 L 74.4782,43 L 75.2173,41.6936 L 75.9335,40.3745 L 76.6266,39.0432
 L 77.2963,37.6999 L 77.9425,36.3452 L 78.5649,34.9793 L 79.1634,33.6029 L 79.7378,32.2162 L 80.2879,30.8196
 L 80.8136,29.4137 L 81.3146,27.9989 L 81.7909,26.5755 L 82.2422,25.144 L 82.5,24.2737 L 82.5,28
 L 96,28 L 96,30 L 101,30 L 101,28 L 114.5,28 L 114.5,2.5
 L 118.5,2.5 L 118.5,-2.5 L 114.5,-2.5 L 114.5,-28 L 101,-28 L 101,-30
 L 96,-30 L 96,-28 L 82.5,-28 z
M 2.5,68.9539 L 2.40805,68.958 L 1.20421,68.9895 L 0,69 L -1.20421,68.9895 L -2.40805,68.958
 L -2.5,68.9539 L -2.5,70.9558 L -3.71585,70.9027 L -4.9527,70.827 L -6.18805,70.7298 L -7.42151,70.6111
 L -8.65271,70.4708 L -9.88129,70.309 L -11.1068,70.1259 L -12.329,69.9213 L -13.5474,69.6955 L -14.7617,69.4485
 L -15.9715,69.1803 L -17.1765,68.891 L -18.3761,68.5807 L -19.5703,68.2496 L -20.7584,67.8976 L -21.9402,67.525
 L -23.1153,67.1318 L -24.2834,66.7182 L -25.4441,66.2842 L -26.5971,65.83 L -27.7419,65.3558 L -28.8783,64.8617
 L -30.0059,64.3479 L -31.1243,63.8144 L -32.2333,63.2615 L -33.3325,62.6893 L -34.4215,62.098 L -35.5,61.4878
 L -36.5677,60.8589 L -37.6243,60.2114 L -38.6694,59.5456 L -39.7027,58.8617 L -40.7239,58.1598 L -41.7327,57.4402
 L -42.7289,56.7031 L -43.712,55.9488 L -44.6817,55.1774 L -45.6379,54.3891 L -46.5802,53.5844 L -47.5083,52.7633
 L -48.4219,51.9261 L -49.3207,51.0731 L -50.2046,50.2046 L -51.0731,49.3207 L -51.9261,48.4219 L -52.7633,47.5083
 L -53.5844,46.5802 L -54.3891,45.6379 L -55.1774,44.6817 L -55.9488,43.712 L -56.7031,42.7289 L -57.4402,41.7327
 L -58.1598,40.7239 L -58.8617,39.7027 L -59.5456,38.6694 L -60.2114,37.6243 L -60.8589,36.5677 L -61.4878,35.5
 L -62.098,34.4215 L -62.6893,33.3325 L -63.2615,32.2333 L -63.8144,31.1243 L -64.3479,30.0059 L -64.8617,28.8783
 L -65.3558,27.7419 L -65.83,26.5971 L -66.2842,25.4441 L -66.7182,24.2834 L -67.1318,23.1153 L -67.525,21.9402
 L -67.8976,20.7584 L -68.2496,19.5703 L -68.5807,18.3761 L -68.891,17.1765 L -69.1803,15.9715 L -69.4485,14.7617
 L -69.6955,13.5474 L -69.9213,12.329 L -70.1259,11.1068 L -70.309,9.88129 L -70.4708,8.65271 L -70.6111,7.42151
 L -70.7298,6.18805 L -70.827,4.9527 L -70.9027,3.71585 L -70.9558,2.5 L -68.9539,2.5 L -68.958,2.40805
 L -68.9895,1.20421 L -69,-0 L -68.9895,-1.20421 L -68.958,-2.40805 L -68.9539,-2.5 L -70.9558,-2.5
 L -70.9027,-3.71585 L -70.827,-4.9527 L -70.7298,-6.18805 L -70.6111,-7.42151 L -70.4708,-8.65271 L -70.309,-9.88129
 L -70.1259,-11.1068 L -69.9213,-12.329 L -69.6955,-13.5474 L -69.4485,-14.7617 L -69.1803,-15.9715 L -68.891,-17.1765
 L -68.5807,-18.3761 L -68.2496,-19.5703 L -67.8976,-20.7584 L -67.525,-21.9402 L -67.1318,-23.1153 L -66.7182,-24.2834
 L -66.2842,-25.4441 L -65.83,-26.5971 L -65.3558,-27.7419 L -64.8617,-28.8783 L -64.3479,-30.0059 L -63.8144,-31.1243
 L -63.2615,-32.2333 L -62.6893,-33.3325 L -62.098,-34.4215 L -61.4878,-35.5 L -60.8589,-36.5677 L -60.2114,-37.6243
 L -59.5456,-38.6694 L -58.8617,-39.7027 L -58.1598,-40.7239 L -57.4402,-41.7327 L -56.7031,-42.7289 L -55.9488,-43.712
 L -55.1774,-44.6817 L -54.3891,-45.6379 L -53.5844,-46.5802 L -52.7633,-47.5083 L -51.9261,-48.4219 L -51.0731,-49.3207
 L -50.2046,-50.2046 L -49.3207,-51.0731 L -48.4219,-51.9261 L -47.5083,-52.7633 L -46.5802,-53.5844 L -45.6379,-54.3891
 L -44.6817,-55.1774 L -43.712,-55.9488 L -42.7289,-56.7031 L -41.7327,-57.4402 L -40.7239,-58.1598 L -39.7027,-58.8617
 L -38.6694,-59.5456 L -37.6243,-60.2114 L -36.5677,-60.8589 L -35.5,-61.4878 L -34.4215,-62.098 L -33.3325,-62.6893
 L -32.2333,-63.2615 L -31.1243,-63.8144 L -30.0059,-64.3479 L -28.8783,-64.8617 L -27.7419,-65.3558 L -26.5971,-65.83
 L -25.4441,-66.2842 L -24.2834,-66.7182 L -23.1153,-67.1318 L -21.9402,-67.525 L -20.7584,-67.8976 L -19.5703,-68.2496
 L -18.3761,-68.5807 L -17.1765,-68.891 L -15.9715,-69.1803 L -14.7617,-69.4485 L -13.5474,-69.6955 L -12.329,-69.9213
 L -11.1068,-70.1259 L -9.88129,-70.309 L -8.65271,-70.4708 L -7.42151,-70.6111 L -6.18805,-70.7298 L -4.9527,-70.827
 L -3.71585,-70.9027 L -2.5,-70.9558 L -2.5,-68.9539 L -2.40805,-68.958 L -1.20421,-68.9895 L 0,-69
 L 1.20421,-68.9895 L 2.40805,-68.958 L 2.5,-68.9539 L 2.5,-70.9558 L 3.71585,-70.9027 L 4.9527,-70.827
 L 6.18805,-70.7298 L 7.42151,-70.6111 L 8.65271,-70.4708 L 9.88129,-70.309 L 11.1068,-70.1259 L 12.329,-69.9213
 L 13.5474,-69.6955 L 14.7617,-69.4485 L 15.9715,-69.1803 L 17.1765,-68.891 L 18.3761,-68.5807 L 19.5703,-68.2496
 L 20.7584,-67.8976 L 21.9402,-67.525 L 23.1153,-67.1318 L 24.2834,-66.7182 L 25.4441,-66.2842 L 26.5971,-65.83
 L 27.7419,-65.3558 L 28.8783,-64.8617 L 30.0059,-64.3479 L 31.1243,-63.8144 L 32.2333,-63.2615 L 33.3325,-62.6893
 L 34.4215,-62.098 L 35.5,-61.4878 L 36.5677,-60.8589 L 37.6243,-60.2114 L 38.6694,-59.5456 L 39.7027,-58.8617
 L 40.7239,-58.1598 L 41.7327,-57.4402 L 42.7289,-56.7031 L 43.712,-55.9488 L 44.6817,-55.1774 L 45.6379,-54.3891
 L 46.5802,-53.5844 L 47.5083,-52.7633 L 48.4219,-51.9261 L 49.3207,-51.0731 L 50.2046,-50.2046 L 51.0731,-49.3207
 L 51.9261,-48.4219 L 52.7633,-47.5083 L 53.5844,-46.5802 L 54.3891,-45.6379 L 55.1774,-44.6817 L 55.9488,-43.712
 L 56.7031,-42.7289 L 57.4402,-41.7327 L 58.1598,-40.7239 L 58.8617,-39.7027 L 59.5456,-38.6694 L 60.2114,-37.6243
 L 60.8589,-36.5677 L 61.4878,-35.5 L 62.098,-34.4215 L 62.6893,-33.3325 L 63.2615,-32.2333 L 63.8144,-31.1243
 L 64.3479,-30.0059 L 64.8617,-28.8783 L 65.3558,-27.7419 L 65.83,-26.5971 L 66.2842,-25.4441 L 66.7182,-24.2834
 L 67.1318,-23.1153 L 67.525,-21.9402 L 67.8976,-20.7584 L 68.2496,-19.5703 L 68.5807,-18.3761 L 68.891,-17.1765
 L 69.1803,-15.9715 L 69.4485,-14.7617 L 69.6955,-13.5474 L 69.9213,-12.329 L 70.1259,-11.1068 L 70.309,-9.88129
 L 70.4708,-8.65271 L 70.6111,-7.42151 L 70.7298,-6.18805 L 70.827,-4.9527 L 70.9027,-3.71585 L 70.9558,-2.5
 L 68.9539,-2.5 L 68.958,-2.40805 L 68.9895,-1.20421 L 69,-0 L 68.9895,1.20421 L 68.958,2.40805
 L 68.9539,2.5 L 70.9558,2.5 L 70.9027,3.71585 L 70.827,4.9527 L 70.7298,6.18805 L 70.6111,7.42151
 L 70.4708,8.65271 L 70.309,9.88129 L 70.1259,11.1068 L 69.9213,12.329 L 69.6955,13.5474 L 69.4485,14.7617
 L 69.1803,15.9715 L 68.891,17.1765 L 68.5807,18.3761 L 68.2496,19.5703 L 67.8976,20.7584 L 67.525,21.9402
 L 67.1318,23.1153 L 66.7182,24.2834 L 66.2842,25.4441 L 65.83,26.5971 L 65.3558,27.7419 L 64.8617,28.8783
 L 64.3479,30.0059 L 63.8144,31.1243 L 63.2615,32.2333 L 62.6893,33.3325 L 62.098,34.4215 L 61.4878,35.5
 L 60.8589,36.5677 L 60.2114,37.6243 L 59.5456,38.6694 L 58.8617,39.7027 L 58.1598,40.7239 L 57.4402,41.7327
 L 56.7031,42.7289 L 55.9488,43.712 L 55.1774,44.6817 L 54.3891,45.6379 L 53.5844,46.5802 L 52.7633,47.5083
 L 51.9261,48.4219 L 51.0731,49.3207 L 50.2046,50.2046 L 49.3207,51.0731 L 48.4219,51.9261 L 47.5083,52.7633
 L 46.5802,53.5844 L 45.6379,54.3891 L 44.6817,55.1774 L 43.712,55.9488 L 42.7289,56.7031 L 41.7327,57.4402
 L 40.7239,58.1598 L 39.7027,58.8617 L 38.6694,59.5456 L 37.6243,60.2114 L 36.5677,60.8589 L 35.5,61.4878
 L 34.4215,62.098 L 33.3325,62.6893 L 32.2333,63.2615 L 31.1243,63.8144 L 30.0059,64.3479 L 28.8783,64.8617
 L 27.7419,65.3558 L 26.5971,65.83 L 25.4441,66.2842 L 24.2834,66.7182 L 23.1153,67.1318 L 21.9402,67.525
 L 20.7584,67.8976 L 19.5703,68.2496 L 18.3761,68.5807 L 17.1765,68.891 L 15.9715,69.1803 L 14.7617,69.4485
 L 13.5474,69.6955 L 12.329,69.9213 L 11.1068,70.1259 L 9.88129,70.309 L 8.65271,70.4708 L 7.42151,70.6111
 L 6.18805,70.7298 L 4.9527,70.827 L 3.71585,70.9027 L 2.5,70.9558 z
" stroke="black" fill="lightgray" stroke-width="0.5"/>
</svg>
